<?xml version="1.0" encoding="UTF-8"?>
<svg width="131px" height="30px" viewBox="0 0 131 30" version="1.1" xmlns="http://www.w3.org/2000/svg" xmlns:xlink="http://www.w3.org/1999/xlink">
    <defs>
        <path d="M14.3716418,25.2107351 C11.6331343,25.2107351 9.05850746,26.2694104 7.63328358,27.8000149 C5.9738806,25.4499739 5,22.6044291 5,19.5357985 C5,11.4789515 11.6989552,4.94703358 19.9619403,4.94703358 C20.8798507,4.94703358 21.7771642,5.03216418 22.6489552,5.18670896 L18.6795522,26.3445 C17.6098507,25.6403172 16.1116418,25.2107351 14.3716418,25.2107351 Z M28.8374627,7.79214179 C32.5292537,10.448653 34.9247761,14.719153 34.9247761,19.5357985 C34.9247761,27.5926455 28.2258209,34.125 19.9619403,34.125 C18.6732836,34.125 17.4231343,33.9660896 16.2298507,33.6674776 C18.3029851,32.893444 19.8795522,31.5221866 20.2897015,29.9431231 L20.2964179,29.9492351 L20.3129851,29.8606119 C20.3197015,29.8313619 20.3313433,29.8034216 20.3371642,29.7741716 C20.3465672,29.7283321 20.3474627,29.6838022 20.3546269,29.6379627 L23.8776119,11.7566082 C25.7926866,12.0827239 27.301194,12.8550112 28.6704478,14.118 C30.5550746,15.856847 30.818806,17.9117687 30.818806,17.9117687 C33.0477612,13.5412948 30.760597,9.47510821 29.1831343,8.0911903 C29.0635821,7.98685075 28.9520896,7.89124254 28.8374627,7.79214179 Z" id="path-1"></path>
        <linearGradient x1="-2.67035231%" y1="68.9718881%" x2="91.1268802%" y2="60.1571697%" id="linearGradient-3">
            <stop stop-color="#FECE00" offset="0%"></stop>
            <stop stop-color="#FF9000" offset="100%"></stop>
        </linearGradient>
    </defs>
    <g id="Header/Horizontal/1440/White" stroke="none" stroke-width="1" fill="none" fill-rule="evenodd" transform="translate(-1.000000, -25.000000)">
        <g id="Element/Logo/Full/white" transform="translate(0.000000, 25.000000)">
            <g id="musicoin" transform="translate(-3.960000, -4.285714)">
                <g id="Icon/Logomark/Normal">
                    <rect id="Bounding-Box" x="0" y="0" width="40" height="39"></rect>
                    <mask id="mask-2" fill="white">
                        <use xlink:href="#path-1"></use>
                    </mask>
                    <use id="Combined-Shape" fill="#EAB200" fill-rule="evenodd" xlink:href="#path-1"></use>
                    <g id="Mixin/Gradient/Primary" mask="url(#mask-2)" fill="url(#linearGradient-3)" fill-rule="evenodd">
                        <rect id="Box" x="0" y="0" width="40" height="39"></rect>
                    </g>
                </g>
                <path d="M48.92536,26.0108571 L49.96508,19.0628571 C50.2942,16.8 49.96508,15.6685714 48.97728,15.6685714 L47.4694,15.6685714 C46.8798,15.684 46.08252,16.0662857 45.07756,16.8154286 L43.69992,26.0108571 L40.83992,26.0108571 L42.71168,13.5128571 L45.3376,13.5128571 L45.3376,14.499 C46.15204,13.842 46.97528,13.5128571 47.80732,13.5128571 L49.3152,13.5128571 C50.90976,13.5128571 51.91516,14.0558571 52.3314,15.1414286 C53.26684,14.2238571 54.35012,13.6812857 55.5808,13.5128571 L56.8546,13.5128571 C59.73132,13.5128571 60.89292,15.363 60.33852,19.0628571 L59.29836,26.0108571 L56.46476,26.0108571 L57.50448,19.0628571 C57.8336,16.8 57.50448,15.6685714 56.51668,15.6685714 L55.26884,15.6685714 C54.67924,15.684 53.88196,16.1198571 52.877,16.9757143 C52.92892,17.5718571 52.89416,18.2678571 52.77272,19.0628571 L51.733,26.0108571 L48.92536,26.0108571" id="Fill-5" fill="#FFFFFF"></path>
                <path d="M71.44676,13.6504286 L74.30676,13.6504286 L72.53884,25.5068571 C70.09508,25.782 68.1538,25.935 66.71544,25.9658571 C63.07576,25.9658571 61.52432,24.1534286 62.06156,20.5302857 L63.10172,13.6504286 L65.96172,13.6504286 L64.92156,20.5302857 C64.6096,22.6251429 65.31976,23.6725714 67.05336,23.6725714 C68.45696,23.6571429 69.4452,23.5114286 70.01676,23.2362857 L71.44676,13.6504286" id="Fill-6" fill="#FFFFFF"></path>
                <path d="M86.54096,13.6962857 L86.22944,15.7602857 L80.58776,15.7375714 C79.25324,15.7375714 78.5598,15.9287143 78.50788,16.311 L78.32572,17.5491429 C78.30812,17.9618571 78.72436,18.2447143 79.57356,18.3977143 L82.64168,18.9021429 C84.964,19.2844286 85.99492,20.2937143 85.73488,21.9295714 L85.57956,23.076 C85.28432,25.0174286 83.655,25.9885714 80.69116,25.9885714 L74.50432,25.8278571 L74.81628,23.718 L80.92568,23.7634286 C82.1216,23.7634286 82.75432,23.5345714 82.8234,23.076 L82.97916,21.9295714 C83.04868,21.5014286 82.62452,21.2031429 81.7058,21.0347143 L78.32572,20.4848571 C76.36684,20.0258571 75.4402,19.0778571 75.54404,17.6408571 L75.77812,16.311 C76.05532,14.4454286 77.77088,13.5128571 80.92568,13.5128571 L86.54096,13.6962857" id="Fill-7" fill="#FFFFFF"></path>
                <path d="M92.82724,8.49042857 L92.46336,10.8527143 L89.60336,10.8527143 L89.96724,8.49042857 L92.82724,8.49042857 Z M92.07352,13.5128571 L90.20132,25.9658571 L87.34132,25.9658571 L89.21352,13.5128571 L92.07352,13.5128571 Z" id="Fill-8" fill="#FFFFFF"></path>
                <path d="M102.80292,25.8737143 L97.65536,26.1257143 C94.03284,26.1257143 92.53376,24.039 93.15768,19.8655714 C93.79832,15.6454286 95.93056,13.5355714 99.55308,13.5355714 L104.59636,13.8111429 L104.28484,15.8747143 L99.26752,15.8061429 C97.51632,15.8061429 96.43348,17.1591429 96.01724,19.8655714 C95.6186,22.5561429 96.29444,23.9014286 98.04564,23.9014286 L103.08892,23.8551429 L102.80292,25.8737143" id="Fill-9" fill="#FFFFFF"></path>
                <path d="M110.0924,15.7144286 C108.44548,15.7144286 107.44888,16.8535714 107.1026,19.1314286 L106.92044,20.4612857 C106.57372,22.7395714 107.2236,23.8791429 108.87052,23.8791429 L110.3784,23.8791429 C112.02488,23.8791429 113.02148,22.7395714 113.3682,20.4612857 L113.55036,19.1314286 C113.89664,16.8535714 113.24676,15.7144286 111.59984,15.7144286 L110.0924,15.7144286 Z M116.38352,19.1314286 L116.2018,20.4612857 C115.64652,24.1311429 113.60184,25.9658571 110.06644,25.9658571 L108.55812,25.9658571 C105.07464,25.9658571 103.60988,24.1311429 104.16516,20.4612857 L104.34688,19.1314286 C104.90172,15.4315714 106.92044,13.5814286 110.40436,13.5814286 L111.91224,13.5814286 C115.44764,13.5814286 116.93836,15.4315714 116.38352,19.1314286 Z" id="Fill-10" fill="#FFFFFF"></path>
                <g id="Group-14" transform="translate(117.480000, 8.142857)" fill="#FFFFFF">
                    <path d="M5.67908,0.347571429 L5.3152,2.70985714 L2.45564,2.70985714 L2.81952,0.347571429 L5.67908,0.347571429 Z M4.92536,5.37 L3.05316,17.823 L0.1936,17.823 L2.0658,5.37 L4.92536,5.37 Z" id="Fill-11"></path>
                    <path d="M8.7362,17.868 L5.87664,17.868 L7.7484,5.37 L10.37432,5.37 L10.40028,6.33342857 C11.19712,5.691 12.01156,5.37 12.8436,5.37 L14.5596,5.37 C17.61012,5.37 18.85796,7.22014286 18.30356,10.92 L17.26384,17.868 L14.45576,17.868 L15.49548,10.92 C15.8246,8.65714286 15.4,7.52571429 14.22212,7.52571429 L12.50568,7.52571429 C11.89848,7.54114286 11.10208,7.92342857 10.11428,8.67257143 L8.7362,17.868" id="Fill-13"></path>
                </g>
            </g>
        </g>
    </g>
</svg>