<?xml version="1.0" encoding="UTF-8"?>
<svg width="1383px" height="1126px" viewBox="0 0 1383 1126" version="1.1" xmlns="http://www.w3.org/2000/svg" xmlns:xlink="http://www.w3.org/1999/xlink">
	<defs>
			<linearGradient x1="50%" y1="-1.11022302e-14%" x2="50%" y2="100%" id="gradient1">
					<stop stop-color="#240340" offset="0%"></stop>
					<stop stop-color="#23083E" stop-opacity="0" offset="100%"></stop>
			</linearGradient>
			<linearGradient x1="50%" y1="100%" x2="50%" y2="0%" id="gradient2">
					<stop stop-color="#FECE00" stop-opacity="0" offset="0%"></stop>
					<stop stop-color="#FF9000" offset="100%"></stop>
			</linearGradient>
			<linearGradient x1="50%" y1="100%" x2="50%" y2="0%" id="gradient3">
					<stop stop-color="#FECE00" stop-opacity="0" offset="0%"></stop>
					<stop stop-color="#FF9000" stop-opacity="0.410297781" offset="100%"></stop>
			</linearGradient>
			<linearGradient x1="50%" y1="100%" x2="50%" y2="0%" id="gradient4">
					<stop stop-color="#FECE00" stop-opacity="0" offset="0%"></stop>
					<stop stop-color="#FF9000" stop-opacity="0.796563632" offset="100%"></stop>
			</linearGradient>
	</defs>
	<g id="Page-1" stroke="none" stroke-width="1" fill="none" fill-rule="evenodd">
		<rect fill="url(#gradient1)" opacity="0.52955163" x="691" y="460" width="167" height="155" rx="4"></rect>
		<rect fill="url(#gradient1)" opacity="0.52955163" x="30" y="505" width="167" height="155" rx="4"></rect>
		<rect fill="url(#gradient1)" opacity="0.52955163" x="284" y="809" width="115" height="107" rx="4"></rect>
		<rect fill="url(#gradient1)" opacity="0.52955163" x="1049" y="916" width="167" height="155" rx="4"></rect>
		<rect fill="url(#gradient1)" opacity="0.52955163" x="1089" y="240" width="127" height="118" rx="4"></rect>
		<rect fill="url(#gradient1)" opacity="0.407155797" x="1290" y="367" width="93" height="86" rx="4"></rect>
		<rect fill="url(#gradient1)" opacity="0.407155797" x="523" y="873" width="93" height="86" rx="4"></rect>
		<rect fill="url(#gradient1)" opacity="0.407155797" x="669" y="75" width="93" height="86" rx="4"></rect>
		<rect fill="url(#gradient2)" opacity="0.131680254" x="890" y="224" width="81" height="75" rx="4"></rect>
		<rect fill="url(#gradient2)" opacity="0.131680254" x="410" y="248" width="81" height="75" rx="4"></rect>
		<rect fill="url(#gradient2)" opacity="0.131680254" x="370" y="623" width="35" height="32" rx="4"></rect>
		<rect fill="url(#gradient2)" opacity="0.131680254" x="1014" y="714" width="35" height="32" rx="4"></rect>
		<rect fill="url(#gradient2)" opacity="0.131680254" x="370" y="0" width="81" height="75" rx="4"></rect>
		<rect fill="url(#gradient3)" opacity="0.131680254" x="1180" y="427" width="165" height="153" rx="4"></rect>
		<rect fill="url(#gradient1)" opacity="0.52955163" x="919" y="446" width="52" height="48" rx="4"></rect>
		<rect fill="url(#gradient1)" opacity="0.52955163" x="564" y="714" width="52" height="48" rx="4"></rect>
		<rect fill="url(#gradient1)" opacity="0.52955163" x="729" y="262" width="66" height="61" rx="4"></rect>
		<rect fill="url(#gradient4)" opacity="0.131680254" x="616" y="402" width="127" height="118" rx="4"></rect>
		<rect fill="url(#gradient4)" opacity="0.131680254" x="729" y="798" width="81" height="75" rx="4"></rect>
		<rect fill="url(#gradient4)" opacity="0.131680254" x="55" y="916" width="102" height="95" rx="4"></rect>
		<rect fill="url(#gradient4)" opacity="0.131680254" x="0" y="477" width="59" height="55" rx="4"></rect>
		<rect fill="url(#gradient4)" opacity="0.131680254" x="1121" y="1071" width="59" height="55" rx="4"></rect>
	</g>
</svg>
