<?xml version="1.0" encoding="UTF-8"?>
<svg width="24px" height="24px" viewBox="0 0 24 24" version="1.1" xmlns="http://www.w3.org/2000/svg" xmlns:xlink="http://www.w3.org/1999/xlink">
    <!-- Generator: Sketch 47 (45396) - http://www.bohemiancoding.com/sketch -->
    <title>Icon/Benefits/Direct</title>
    <desc>Created with Sketch.</desc>
    <defs>
        <linearGradient x1="-2.67035231%" y1="68.9718881%" x2="91.1268802%" y2="60.1571697%" id="linearGradient-1">
            <stop stop-color="#FECE00" offset="0%"></stop>
            <stop stop-color="#FF9000" offset="100%"></stop>
        </linearGradient>
    </defs>
    <g id="Symbols" stroke="none" stroke-width="1" fill="none" fill-rule="evenodd">
        <g id="Icon/Benefits/Direct" fill-rule="nonzero" fill="url(#linearGradient-1)">
            <g id="Group" transform="translate(9.000000, 0.000000)">
                <g transform="translate(0.000000, 5.000000)" id="Shape">
                    <g>
                        <path d="M4.81,3.708 C4.643,3.708 4.477,3.645 4.351,3.518 L3,2.167 L1.649,3.517 C1.395,3.771 0.984,3.771 0.73,3.517 C0.476,3.263 0.476,2.851 0.73,2.598 L2.54,0.788 C2.794,0.534 3.205,0.534 3.459,0.788 L5.269,2.598 C5.523,2.851 5.523,3.263 5.269,3.517 C5.143,3.644 4.977,3.708 4.81,3.708 Z"></path>
                        <path d="M3,13.402 C2.828,13.402 2.662,13.333 2.541,13.212 L0.731,11.401 C0.477,11.147 0.477,10.735 0.731,10.481 C0.985,10.227 1.396,10.227 1.65,10.481 L3,11.833 L4.351,10.481 C4.605,10.227 5.016,10.227 5.27,10.481 C5.524,10.735 5.524,11.147 5.27,11.401 L3.46,13.212 C3.338,13.333 3.172,13.402 3,13.402 Z"></path>
                    </g>
                    <path d="M3,12.519 C2.641,12.519 2.35,12.228 2.35,11.869 L2.35,2.131 C2.35,1.772 2.641,1.481 3,1.481 C3.359,1.481 3.65,1.772 3.65,2.131 L3.65,11.869 C3.65,12.228 3.359,12.519 3,12.519 Z"></path>
                </g>
                <g id="Shape">
                    <path d="M3,23.525 C1.837,23.525 0.892,22.579 0.892,21.417 C0.892,20.254 1.838,19.308 3,19.308 C4.162,19.308 5.108,20.254 5.108,21.417 C5.108,22.579 4.163,23.525 3,23.525 Z M3,20.608 C2.554,20.608 2.191,20.97 2.191,21.417 C2.191,21.862 2.554,22.225 3,22.225 C3.446,22.225 3.809,21.863 3.809,21.417 C3.809,20.97 3.446,20.608 3,20.608 Z"></path>
                    <path d="M3,4.691 C1.837,4.691 0.892,3.746 0.892,2.583 C0.892,1.42 1.837,0.475 3,0.475 C4.163,0.475 5.108,1.421 5.108,2.583 C5.108,3.745 4.163,4.691 3,4.691 Z M3,1.775 C2.554,1.775 2.191,2.138 2.191,2.584 C2.191,3.029 2.554,3.392 3,3.392 C3.446,3.392 3.809,3.029 3.809,2.584 C3.809,2.137 3.446,1.775 3,1.775 Z"></path>
                </g>
            </g>
            <g id="Group" transform="translate(0.000000, 9.000000)">
                <g transform="translate(5.000000, 0.000000)" id="Shape">
                    <g>
                        <path d="M3.058,5.46 C2.891,5.46 2.725,5.397 2.599,5.27 L0.789,3.46 C0.535,3.206 0.535,2.794 0.789,2.54 L2.599,0.73 C2.853,0.476 3.264,0.476 3.518,0.73 C3.772,0.984 3.772,1.396 3.518,1.65 L2.168,3 L3.518,4.35 C3.772,4.604 3.772,5.016 3.518,5.27 C3.391,5.396 3.225,5.46 3.058,5.46 Z"></path>
                        <path d="M10.942,5.46 C10.775,5.46 10.609,5.397 10.483,5.27 C10.229,5.016 10.229,4.604 10.483,4.35 L11.833,3 L10.483,1.65 C10.229,1.396 10.229,0.984 10.483,0.73 C10.737,0.476 11.148,0.476 11.402,0.73 L13.212,2.54 C13.466,2.794 13.466,3.206 13.212,3.46 L11.402,5.27 C11.274,5.396 11.108,5.46 10.942,5.46 Z"></path>
                    </g>
                    <path d="M11.869,3.65 L2.131,3.65 C1.772,3.65 1.481,3.359 1.481,3 C1.481,2.641 1.772,2.35 2.131,2.35 L11.869,2.35 C12.228,2.35 12.519,2.641 12.519,3 C12.519,3.359 12.228,3.65 11.869,3.65 Z"></path>
                </g>
                <g id="Shape">
                    <path d="M21.417,5.108 C20.254,5.108 19.309,4.162 19.309,3 C19.309,1.838 20.254,0.892 21.417,0.892 C22.58,0.892 23.525,1.838 23.525,3 C23.525,4.162 22.579,5.108 21.417,5.108 Z M21.417,2.192 C20.972,2.192 20.609,2.554 20.609,3 C20.609,3.446 20.972,3.808 21.417,3.808 C21.863,3.808 22.226,3.446 22.226,3 C22.226,2.554 21.862,2.192 21.417,2.192 Z"></path>
                    <path d="M2.583,5.108 C1.42,5.108 0.475,4.162 0.475,3 C0.475,1.838 1.421,0.892 2.583,0.892 C3.745,0.892 4.691,1.838 4.691,3 C4.691,4.162 3.746,5.108 2.583,5.108 Z M2.583,2.192 C2.137,2.192 1.774,2.554 1.774,3 C1.774,3.446 2.137,3.808 2.583,3.808 C3.028,3.808 3.391,3.446 3.391,3 C3.391,2.554 3.029,2.192 2.583,2.192 Z"></path>
                </g>
            </g>
        </g>
    </g>
</svg>