<?xml version="1.0" encoding="UTF-8"?>
<svg width="24px" height="24px" viewBox="0 0 24 24" version="1.1" xmlns="http://www.w3.org/2000/svg" xmlns:xlink="http://www.w3.org/1999/xlink">
    <!-- Generator: Sketch 47 (45396) - http://www.bohemiancoding.com/sketch -->
    <title>Icon/Benefits/Enjoy</title>
    <desc>Created with Sketch.</desc>
    <defs>
        <linearGradient x1="-2.67035231%" y1="68.9718881%" x2="91.1268802%" y2="60.1571697%" id="linearGradient-1">
            <stop stop-color="#FECE00" offset="0%"></stop>
            <stop stop-color="#FF9000" offset="100%"></stop>
        </linearGradient>
    </defs>
    <g id="Symbols" stroke="none" stroke-width="1" fill="none" fill-rule="evenodd">
        <g id="Icon/Benefits/Enjoy" fill-rule="nonzero" fill="url(#linearGradient-1)">
            <path d="M9.41235608,18.3363883 C9.80161603,18.5124446 10.2085915,18.6562334 10.6298709,18.7643434 L10.6298709,18.7643434 C11.6684549,18.3663481 12.4581998,17.6616148 12.6637081,16.8501265 L12.6670746,16.8532685 L12.6753786,16.8077087 C12.6787451,16.7926717 12.6845803,16.778308 12.6874979,16.763271 C12.692211,16.7397055 12.6926599,16.7168134 12.6962508,16.6932479 L14.4620884,7.50070338 C15.4219876,7.66835471 16.1781018,8.06537639 16.8644175,8.71466059 C17.8090553,9.60857658 17.9412462,10.6649819 17.9412462,10.6649819 C19.0584729,8.41818481 17.9120699,6.32781738 17.1213931,5.61636529 C17.0614695,5.56272584 17.0055857,5.51357505 16.9481309,5.46262879 C18.659037,6.7253169 19.8145081,8.69731172 19.9790751,10.9447093 C19.7110118,7.27969463 16.8091224,4.3460723 13.1579745,4.02850445 C14.08421,3.37046729 15.2054651,3 16.3959677,3 C17.8920968,3 19.298871,3.58290323 20.3566129,4.64064516 C22.5404839,6.82419355 22.5404839,10.3780645 20.3566129,12.5619355 L12.2253226,20.6932258 C12.1624194,20.756129 12.0798387,20.7877419 11.9972581,20.7877419 C11.9146774,20.7877419 11.8320968,20.756129 11.7691935,20.6932258 L9.41235608,18.3363883 Z M6.57482555,15.4988578 L5.66462797,14.5886602 C5.23793833,13.6467308 5,12.6012236 5,11.4997599 C5.00001611,12.6002772 5.23707605,13.6454279 5.66290697,14.5869392 L3.63790323,12.5619355 C1.45403226,10.3780645 1.45403226,6.82451613 3.63790323,4.64064516 C4.69564516,3.58290323 6.10241935,3 7.59854839,3 C9.35435484,3 10.9508065,3.80516129 11.9972581,5.13451613 C12.332336,4.70885715 12.7230584,4.33769571 13.1565258,4.02953402 C13.3896422,4.05041499 13.6196632,4.082017 13.8462447,4.12321363 L11.8566476,15.0001266 C11.3204775,14.6381164 10.5695253,14.4172745 9.69737926,14.4172745 C8.4751557,14.4172745 7.31805913,14.8487854 6.57482555,15.4988578 Z" id="Combined-Shape"></path>
        </g>
    </g>
</svg>