<?xml version="1.0" encoding="UTF-8"?>
<svg width="24px" height="24px" viewBox="0 0 24 24" version="1.1" xmlns="http://www.w3.org/2000/svg" xmlns:xlink="http://www.w3.org/1999/xlink">
    <!-- Generator: Sketch 47 (45396) - http://www.bohemiancoding.com/sketch -->
    <title>Icon/Benefits/Free</title>
    <desc>Created with Sketch.</desc>
    <defs>
        <linearGradient x1="-2.67035231%" y1="68.9718881%" x2="91.1268802%" y2="60.1571697%" id="linearGradient-1">
            <stop stop-color="#FECE00" offset="0%"></stop>
            <stop stop-color="#FF9000" offset="100%"></stop>
        </linearGradient>
    </defs>
    <g id="Symbols" stroke="none" stroke-width="1" fill="none" fill-rule="evenodd">
        <g id="Icon/Benefits/Free">
            <g id="Group-3" transform="translate(0.000000, 2.000000)">
                <path d="M9.75807996,8.33421116 C8.65992339,8.33421116 7.62748384,8.76963131 7.05596122,9.39915011 C6.39053148,8.43260713 6,7.26226957 6,6.00017955 C6,2.68649749 8.68631793,0 11.9998204,0 C12.3679076,0 12.7277352,0.0350131673 13.0773282,0.0985755327 L11.4855758,8.80051472 C11.0566196,8.51089299 10.4558295,8.33421116 9.75807996,8.33421116 Z M15.5589538,1.17015801 C17.0393823,2.26274838 18,4.0191525 18,6.00017955 C18,9.31386162 15.3136821,12.0005387 11.9998204,12.0005387 C11.483062,12.0005387 10.9817453,11.9351808 10.503232,11.8123653 C11.3345703,11.4940148 11.9667824,10.9300335 12.1312545,10.2805842 L12.1339478,10.2830979 L12.1405913,10.2466483 C12.1432847,10.2346181 12.1479531,10.2231266 12.1502873,10.2110965 C12.1540579,10.1922432 12.154417,10.1739287 12.1572899,10.1550754 L13.5700263,2.80069428 C14.3379818,2.93482164 14.9429016,3.25245391 15.4919799,3.77190567 C16.2477256,4.48707206 16.3534834,5.33223605 16.3534834,5.33223605 C17.2473067,3.53471391 16.3301412,1.86234139 15.69757,1.29315298 C15.6496289,1.25023941 15.6049198,1.21091693 15.5589538,1.17015801 Z" id="Combined-Shape" fill="url(#linearGradient-1)"></path>
                <g id="noun_1147001_cc" transform="translate(0.000000, 12.000000)">
                    <g id="Group">
                        <g id="Group-2">
                            <path d="M8.85446982,3.01027965 C8.63590912,2.97451354 8.51883316,3.02858514 8.42812055,3.22769252 C7.97002186,4.23421273 7.64288951,5.29846564 7.08273914,6.25964456 C6.88799051,6.59393094 7.06091142,6.75445598 7.35317611,6.86457053 C8.28893339,7.21716239 9.08635393,6.87358247 9.22355675,5.92366846 C9.36019262,4.97797879 9.66436334,4.09649914 10,3.12602666 C9.56939858,3.08490972 9.20853247,3.06829397 8.85446982,3.01027965 Z" id="Shape"></path>
                            <path d="M20.6926562,1.02176448 C20.5577309,1.08385846 20.4351563,1.18091087 20.3165432,1.27576309 C19.2355095,2.14116738 18.2253174,3.08186673 17.4304465,4.2538295 C17.2344669,4.54278652 17.0224081,4.82880998 16.6407023,4.85863464 C15.9110803,4.9153504 15.1884492,5.06154017 14.4518362,5.03831604 C14.2297571,5.03122657 14.0813159,4.94175257 14.0435648,4.7178231 C14.0037164,4.4816704 14.155886,4.35014851 14.3446417,4.28194291 C14.5564674,4.20542553 14.7769153,4.15579924 14.9934017,4.09370526 C15.5720193,3.9274694 16.1935146,3.98222945 16.7523244,3.72040798 C16.8644127,3.66784812 17.021942,3.63484541 17.0154172,3.45687526 C17.0088923,3.27792726 16.851829,3.26961546 16.734381,3.21558881 C16.4512476,3.0855337 16.152268,3.06524315 15.8507251,3.06719887 C14.443214,3.07575512 13.0548116,3.10973569 11.6929748,3.63729005 C10.6494591,4.04138986 10.3197194,4.34159225 10.2239434,5.50230964 C10.1847941,5.97705968 10.1572963,6.46305509 10,6.90993617 C10.3157579,6.90993617 10.6352442,6.87888918 10.9477396,6.91506993 C12.6411805,7.11088598 14.3343883,6.90406903 16.0278291,6.92362618 C16.5919987,6.93022673 17.1750438,6.79430447 17.5581478,6.29828602 C18.6799621,4.84665588 19.5219053,3.18283057 20.6679549,1.74733509 C20.7753825,1.61287962 20.860439,1.45691127 20.9445634,1.30412097 C20.9895385,1.22222536 21.0380091,1.10194884 20.9543508,1.03961039 C20.8916652,0.993162138 20.7660612,0.988028384 20.6926562,1.02176448 Z" id="Shape"></path>
                            <path d="M20.9535779,0.0151418894 C20.6536418,0.0619044527 20.3994172,0.212751431 20.1583927,0.395779098 C19.4754086,0.914441292 18.8168691,1.465787 18.236797,2.10210983 C17.8847937,2.4882781 17.635947,2.60267039 17.0404747,2.4214026 C15.0978566,1.83058527 13.1464384,2.09557313 11.2703098,2.84025438 C10.8963063,2.98883865 10.613237,3.22315429 10.3348121,2.73063891 C10.2490113,2.57878629 10.0475872,2.63032567 9.89163022,2.62605167 C9.61613876,2.61876073 9.34675847,2.60468168 9.07053367,2.54585136 C8.13674717,2.34698476 7.17851601,2.25119693 6.26135189,1.99576271 C5.55074525,1.79790176 4.81960509,1.83913327 4.11828744,1.64881466 C3.83448479,1.57188271 3.55581552,1.46955817 3.26859061,1.4117335 C3.04174405,1.36597658 2.88212034,1.49897333 2.8364088,1.72775792 C2.79314173,1.94472615 2.95496546,1.97841531 3.11752254,2.03272022 C3.76701749,2.24968846 4.37764541,2.56898123 5.06331848,2.7002181 C5.63459048,2.80933075 6.19119568,3.02252781 6.73875635,3.23220511 C7.34840648,3.46551511 7.38262902,3.67091841 7.13353781,4.27204362 C6.84386844,4.97096795 6.48526509,5.646511 6.3466638,6.40552271 C6.31781908,6.56290639 6.31928576,6.75247076 6.07679461,6.70118279 C5.30238738,6.53675958 4.50769107,6.63832988 3.72619489,6.45781633 C2.71149652,6.22350069 1.69068699,5.9859167 0.644210558,5.9275892 C0.35283006,5.91124745 0.0308937208,5.91627568 0.00204900707,6.28132537 C-0.0292401739,6.67729869 0.303451821,6.77157805 0.614632504,6.77459499 C1.1115927,6.77962322 1.58850826,6.90482621 2.07397946,6.96969041 C2.91096505,7.08156859 3.70981696,7.41217488 4.56660273,7.39583313 C5.3982105,7.37999419 6.21148476,7.53209823 7.02255899,7.70808637 C7.55667509,7.82398713 8.06927988,8.01757409 8.6390852,7.99871822 C9.66649479,7.96452623 10.636215,7.53687505 11.7122694,7.72618801 C12.8900138,7.9336026 14.1063807,7.6007336 15.3867926,7.75912293 C15.7984409,7.70758355 16.2941789,7.68043109 16.7740278,7.57659809 C17.3611888,7.44963521 17.8737936,7.16579148 18.2658862,6.6667394 C19.39083,5.23419593 20.232949,3.59423786 21.3918709,2.1855785 C21.6287398,1.89771218 21.8370084,1.57238553 21.9479872,1.19325679 C22.1613892,0.461146122 21.6962071,-0.100507461 20.9535779,0.0151418894 Z M7.43347394,6.77761193 C7.18144937,6.67930998 7.03233686,6.53600535 7.20027176,6.23757974 C7.6832985,5.37951185 7.96514557,4.4294273 8.36041593,3.53088213 C8.43863888,3.3528827 8.53959538,3.30486307 8.72806381,3.33679235 C9.03337777,3.38858315 9.34455845,3.40366785 9.71611748,3.44037394 C9.42669255,4.30648701 9.16440121,5.09340541 9.04657789,5.93789708 C8.92802123,6.7856571 8.24039259,7.09212788 7.43347394,6.77761193 Z M21.1821356,1.11255366 C21.0938904,1.26968593 21.0046673,1.42983513 20.8919774,1.56836294 C19.6897884,3.04440063 18.8066023,4.75575959 17.6298358,6.24864186 C17.2277209,6.75875605 16.6163597,6.89854092 16.0245541,6.89175281 C14.2484042,6.87163988 12.4720099,7.08433412 10.6956155,6.8829534 C10.3678124,6.84574448 10.032676,6.87767376 9.70145067,6.87767376 C9.86645221,6.41809329 9.89529693,5.91828697 9.93636398,5.43004559 C10.037076,4.23634317 10.3829681,3.92760968 11.4773561,3.51202626 C12.9059028,2.96947996 14.362072,2.93478515 15.8387746,2.92573434 C16.1550887,2.92372304 16.4689583,2.9443388 16.7657166,3.0783412 C16.8889178,3.13390317 17.0536749,3.14245116 17.0605194,3.32648447 C17.0673639,3.50951214 16.9021179,3.54345271 16.784539,3.59750621 C16.1983558,3.86676807 15.5464164,3.81070327 14.9394551,3.98141177 C14.7123641,4.04527033 14.4811175,4.0965583 14.2589154,4.17499873 C14.0609136,4.24514257 13.9015343,4.38040203 13.9430903,4.62326566 C13.9826906,4.85381013 14.1384032,4.94582679 14.3713609,4.95286631 C15.144057,4.97675042 15.9020863,4.82640626 16.667449,4.76807876 C17.0678528,4.73740654 17.2902993,4.44325494 17.495879,4.14608639 C18.3296868,2.94056762 19.3893633,1.97338708 20.5233517,1.08338991 C20.6477751,0.985842195 20.7763541,0.885780366 20.9178887,0.822173223 C20.9948894,0.787478418 21.1264018,0.792758062 21.1916691,0.840526272 C21.2799143,0.904636238 21.2293139,1.02833076 21.1821356,1.11255366 Z" id="Shape" fill="url(#linearGradient-1)" fill-rule="nonzero"></path>
                        </g>
                    </g>
                </g>
            </g>
        </g>
    </g>
</svg>