<svg xmlns="http://www.w3.org/2000/svg" width="1920" height="1498" viewBox="0 0 1920 1498" version="1.1">
	<title>Background</title>
	<defs>
		<rect x="0.5" y="0.9" width="1920" height="1548" />
	</defs>
	<g transform="translate(-0.500000, -0.899994)" stroke-linecap="square" stroke="#000000" stroke-width="0.15" opacity="0.3" fill-rule="evenodd" fill="none">
		<path
			d="M1361 1L587.7 1339M1067.5 1L294.2 1339M1654.6 1L881.2 1339M800.7 1L27.3 1339M1387.7 1L614.4 1339M1094.2 1L320.9 1339M1681.2 1L907.9 1339M827.4 1L54 1339M1414.4 1L641.1 1339M1120.9 1L347.6 1339M1707.9 1L934.6 1339M854 1L80.7 1339M1441.1 1L667.8 1339M1147.6 1L374.2 1339M1734.6 1L961.3 1339M880.7 1L107.4 1339M1467.8 1L694.4 1339M1174.3 1L400.9 1339M1761.3 1L988 1339M907.4 1L134.1 1339M1494.5 1L721.1 1339M1200.9 1L427.6 1339M1788 1L1014.7 1339M934.1 1L160.8 1339M1521.1 1L747.8 1339M1227.6 1L454.3 1339M1814.7 1L1041.3 1339M960.8 1L187.5 1339M1547.8 1L774.5 1339M1254.3 1L481 1339M1841.4 1L1068 1339M987.5 1L214.1 1339M1574.5 1L801.2 1339M1281 1L507.7 1339M1868 1L1094.7 1339M1014.2 1L240.8 1339M1601.2 1L827.9 1339M1307.7 1L534.3 1339M1894.7 1L1121.4 1339M1040.8 1L267.5 1339M1627.9 1L854.5 1339M1334.4 1L561 1339M1921.4 1L1148.1 1339M1974.8 1L1201.4 1339M2001.5 1L1228.1 1339M2028.1 1L1254.8 1339M2054.8 1L1281.5 1339M2081.5 1L1308.2 1339M2108.2 1L1334.9 1339M1948.1 1L1174.8 1339M774 1L0.7 1339M2695.3 1L1922 1339M2401.8 1L1628.4 1339M2988.8 1L2215.5 1339M2134.9 1L1361.6 1339M2722 1L1948.6 1339M2428.4 1L1655.1 1339M3015.5 1L2242.2 1339M2161.6 1L1388.3 1339M2748.7 1L1975.3 1339M2455.1 1L1681.8 1339M3042.2 1L2268.8 1339M2188.3 1L1415 1339M2775.3 1L2002 1339M2481.8 1L1708.5 1339M3068.9 1L2295.5 1339M2215 1L1441.6 1339M2802 1L2028.7 1339M2508.5 1L1735.2 1339M3095.5 1L2322.2 1339M2241.7 1L1468.3 1339M2828.7 1L2055.4 1339M2535.2 1L1761.8 1339M3122.2 1L2348.9 1339M2268.3 1L1495 1339M2855.4 1L2082.1 1339M2561.9 1L1788.5 1339M3148.9 1L2375.6 1339M2295 1L1521.7 1339M2882.1 1L2108.7 1339M2588.5 1L1815.2 1339M3175.6 1L2402.3 1339M2321.7 1L1548.4 1339M2908.8 1L2135.4 1339M2615.2 1L1841.9 1339M3202.3 1L2428.9 1339M2348.4 1L1575.1 1339M2935.4 1L2162.1 1339M2641.9 1L1868.6 1339M3229 1L2455.6 1339M2375.1 1L1601.7 1339M2962.1 1L2188.8 1339M2668.6 1L1895.3 1339M3255.6 1L2482.3 1339M3309 1L2535.7 1339M3335.7 1L2562.4 1339M3362.4 1L2589 1339M3389.1 1L2615.7 1339M3415.7 1L2642.4 1339M3442.4 1L2669.1 1339M3282.3 1L2509 1339"
			transform="translate(1250.638944, 444.399994) rotate(30.000000) translate(-1250.638944, -444.399994) translate(-470.861056, -225.600006)"
		/>
		<path
			d="M678.3 392.2L678.3 1730.2M421.3 243.9L421.3 1581.9M936.7 541.4L936.7 1879.3M187.2 108.8L187.2 1446.8M702.7 406.3L702.7 1744.3M444.3 257.2L444.3 1595.2M959.7 554.6L959.7 1892.6M211.6 122.9L211.6 1460.9M725.7 419.6L725.7 1757.5M468.6 271.2L468.6 1609.2M982.7 567.9L982.7 1905.9M234.6 136.2L234.6 1474.1M0 0.8L0 1338.8M748.7 432.8L748.7 1770.8M491.6 284.5L491.6 1622.5M1007.1 582L1007.1 1919.9M257.6 149.4L257.6 1487.4M23 14L23 1352M773 446.9L773 1784.9M514.6 297.8L514.6 1635.8M1030.1 595.2L1030.1 1933.2M280.6 162.7L280.6 1500.7M46 27.3L46 1365.3M796 460.2L796 1798.1M539 311.8L539 1649.8M1053.1 608.5L1053.1 1946.5M304.9 176.8L304.9 1514.7M70.4 41.4L70.4 1379.4M819 473.4L819 1811.4M562 325.1L562 1663.1M1076.1 621.8L1076.1 1959.8M327.9 190L327.9 1528M93.4 54.6L93.4 1392.6M843.4 487.5L843.4 1825.5M585 338.4L585 1676.3M1100.4 635.8L1100.4 1973.8M350.9 203.3L350.9 1541.3M116.4 67.9L116.4 1405.9M866.4 500.8L866.4 1838.7M609.3 352.4L609.3 1690.4M1123.4 649.1L1123.4 1987.1M375.3 217.4L375.3 1555.3M140.7 82L140.7 1420M889.4 514L889.4 1852M632.3 365.7L632.3 1703.7M1146.4 662.4L1146.4 2000.4M398.3 230.6L398.3 1568.6M163.7 95.2L163.7 1433.2M912.4 527.3L912.4 1865.3M655.3 379L655.3 1716.9M1170.8 676.4L1170.8 2014.4M1216.8 703L1216.8 2041M1241.1 717L1241.1 2055M1264.1 730.3L1264.1 2068.3M1287.1 743.6L1287.1 2081.6M1310.1 756.8L1310.1 2094.8M1334.5 770.9L1334.5 2108.9M1193.8 689.7L1193.8 2027.7M678.3 1726.5L678.3 3064.5M421.3 1578.1L421.3 2916.1M936.7 1875.6L936.7 3213.6M187.3 1443.1L187.3 2781.1M702.7 1740.5L702.7 3078.5M444.3 1591.4L444.3 2929.4M959.7 1888.9L959.7 3226.9M211.6 1457.1L211.6 2795.1M725.7 1753.8L725.7 3091.8M468.7 1605.5L468.7 2943.4M982.7 1902.1L982.7 3240.1M234.6 1470.4L234.6 2808.4M0 1335L0 2673M748.7 1767.1L748.7 3105.1M491.7 1618.7L491.7 2956.7M1007.1 1916.2L1007.1 3254.2M257.6 1483.7L257.6 2821.7M23 1348.3L23 2686.3M773 1781.1L773 3119.1M514.7 1632L514.7 2970M1030.1 1929.5L1030.1 3267.5M280.6 1496.9L280.6 2834.9M46 1361.6L46 2699.5M796 1794.4L796 3132.4M539 1646.1L539 2984M1053.1 1942.7L1053.1 3280.7M305 1511L305 2849M70.4 1375.6L70.4 2713.6M819 1807.7L819 3145.7M562 1659.3L562 2997.3M1076.1 1956L1076.1 3294M328 1524.3L328 2862.3M93.4 1388.9L93.4 2726.9M843.4 1821.7L843.4 3159.7M585 1672.6L585 3010.6M1100.4 1970.1L1100.4 3308.1M351 1537.5L351 2875.5M116.4 1402.2L116.4 2740.1M866.4 1835L866.4 3173M609.4 1686.7L609.4 3024.6M1123.4 1983.3L1123.4 3321.3M375.3 1551.6L375.3 2889.6M140.7 1416.2L140.7 2754.2M889.4 1848.3L889.4 3186.3M632.3 1699.9L632.3 3037.9M1146.4 1996.6L1146.4 3334.6M398.3 1564.9L398.3 2902.8M163.7 1429.5L163.7 2767.5M912.4 1861.5L912.4 3199.5M655.3 1713.2L655.3 3051.2M1170.8 2010.7L1170.8 3348.7M1216.8 2037.2L1216.8 3375.2M1241.1 2051.3L1241.1 3389.3M1264.1 2064.5L1264.1 3402.5M1287.1 2077.8L1287.1 3415.8M1310.1 2091.1L1310.1 3429.1M1334.5 2105.1L1334.5 3443.1M1193.8 2023.9L1193.8 3361.9"
			transform="translate(1250.388944, 443.833007) rotate(-60.000000) translate(-1250.388944, -443.833007) translate(582.388944, -1278.166993)"
		/>
	</g>
</svg>
