<?xml version="1.0" encoding="UTF-8"?>
<svg width="516px" height="446px" viewBox="0 0 516 446" version="1.1" xmlns="http://www.w3.org/2000/svg" xmlns:xlink="http://www.w3.org/1999/xlink">
    <!-- Generator: Sketch 47 (45396) - http://www.bohemiancoding.com/sketch -->
    <title>Group 32</title>
    <desc>Created with Sketch.</desc>
    <defs>
        <linearGradient x1="160.411414%" y1="26.5547729%" x2="-27.1246531%" y2="122.73137%" id="linearGradient-1">
            <stop stop-color="#FECE00" offset="0%"></stop>
            <stop stop-color="#FF9000" offset="100%"></stop>
        </linearGradient>
        <linearGradient x1="0%" y1="91.5246472%" x2="-60.1057088%" y2="-22.0411%" id="linearGradient-2">
            <stop stop-color="#FECE00" offset="0%"></stop>
            <stop stop-color="#FF9000" offset="100%"></stop>
        </linearGradient>
        <linearGradient x1="74.7283976%" y1="85.2740872%" x2="39.7856252%" y2="13.6155221%" id="linearGradient-3">
            <stop stop-color="#FECE00" offset="0%"></stop>
            <stop stop-color="#FF9000" offset="100%"></stop>
        </linearGradient>
        <linearGradient x1="23.6070483%" y1="16.5078571%" x2="-28.9457174%" y2="0%" id="linearGradient-4">
            <stop stop-color="#FECE00" offset="0%"></stop>
            <stop stop-color="#FF9000" offset="100%"></stop>
        </linearGradient>
        <linearGradient x1="-22.7522541%" y1="23.1690923%" x2="39.7856252%" y2="13.6155221%" id="linearGradient-5">
            <stop stop-color="#FECE00" offset="0%"></stop>
            <stop stop-color="#FECE00" offset="0%"></stop>
            <stop stop-color="#FF9000" offset="100%"></stop>
        </linearGradient>
        <filter x="-12.1%" y="-8.2%" width="124.1%" height="117.6%" filterUnits="objectBoundingBox" id="filter-6">
            <feOffset dx="0" dy="2" in="SourceAlpha" result="shadowOffsetOuter1"></feOffset>
            <feGaussianBlur stdDeviation="10" in="shadowOffsetOuter1" result="shadowBlurOuter1"></feGaussianBlur>
            <feColorMatrix values="0 0 0 0 1   0 0 0 0 0.733333333   0 0 0 0 0  0 0 0 0.358723958 0" type="matrix" in="shadowBlurOuter1" result="shadowMatrixOuter1"></feColorMatrix>
            <feMerge>
                <feMergeNode in="shadowMatrixOuter1"></feMergeNode>
                <feMergeNode in="SourceGraphic"></feMergeNode>
            </feMerge>
        </filter>
        <linearGradient x1="-2.67035231%" y1="68.9718881%" x2="-139.41995%" y2="74.3780354%" id="linearGradient-7">
            <stop stop-color="#FECE00" offset="0%"></stop>
            <stop stop-color="#FF9000" offset="100%"></stop>
        </linearGradient>
        <linearGradient x1="-2.67035231%" y1="68.9718881%" x2="91.1268802%" y2="60.1571697%" id="linearGradient-8">
            <stop stop-color="#FECE00" offset="0%"></stop>
            <stop stop-color="#FF9000" offset="100%"></stop>
        </linearGradient>
        <linearGradient x1="73.9796598%" y1="81.6100319%" x2="97.9315184%" y2="53.9644901%" id="linearGradient-9">
            <stop stop-color="#FECE00" offset="0%"></stop>
            <stop stop-color="#FF9000" offset="100%"></stop>
        </linearGradient>
        <linearGradient x1="67.9251409%" y1="82.0728123%" x2="90.2994396%" y2="82.0728147%" id="linearGradient-10">
            <stop stop-color="#FECE00" offset="0%"></stop>
            <stop stop-color="#FF9000" offset="100%"></stop>
        </linearGradient>
        <linearGradient x1="188.509982%" y1="43.4504525%" x2="-393.333949%" y2="5.89621509%" id="linearGradient-11">
            <stop stop-color="#FECE00" offset="0%"></stop>
            <stop stop-color="#FF9000" offset="100%"></stop>
        </linearGradient>
        <linearGradient x1="66.3433286%" y1="72.698713%" x2="62.4521688%" y2="21.6614488%" id="linearGradient-12">
            <stop stop-color="#FECE00" offset="0%"></stop>
            <stop stop-color="#FF9000" offset="100%"></stop>
        </linearGradient>
        <filter x="-10.8%" y="-7.4%" width="121.7%" height="115.8%" filterUnits="objectBoundingBox" id="filter-13">
            <feOffset dx="0" dy="2" in="SourceAlpha" result="shadowOffsetOuter1"></feOffset>
            <feGaussianBlur stdDeviation="10" in="shadowOffsetOuter1" result="shadowBlurOuter1"></feGaussianBlur>
            <feColorMatrix values="0 0 0 0 1   0 0 0 0 0.733333333   0 0 0 0 0  0 0 0 0.358723958 0" type="matrix" in="shadowBlurOuter1" result="shadowMatrixOuter1"></feColorMatrix>
            <feMerge>
                <feMergeNode in="shadowMatrixOuter1"></feMergeNode>
                <feMergeNode in="SourceGraphic"></feMergeNode>
            </feMerge>
        </filter>
        <linearGradient x1="70.4850372%" y1="50%" x2="37.0030645%" y2="13.9618629%" id="linearGradient-14">
            <stop stop-color="#FECE00" offset="0%"></stop>
            <stop stop-color="#FF9000" offset="100%"></stop>
        </linearGradient>
    </defs>
    <g id="Page-1" stroke="none" stroke-width="1" fill="none" fill-rule="evenodd">
        <g id="Group-32" transform="translate(20.000000, 16.000000)">
            <g id="Group-29" transform="translate(291.000000, 168.000000)">
                <path d="M67.0137988,110.591268 L59.713181,87.9824193 L26.8042424,68.7054126 L19.5036246,82.7613227 L0.858969969,71.8398786 L34.7787634,6.84587889 L51.7386601,16.7804455 L85.6584535,121.512712 L67.0137988,110.591268 Z M43.3148703,37.098607 L33.430957,55.9544422 L53.0864664,67.4680128 L43.3148703,37.098607 Z" id="Combined-Shape" fill="url(#linearGradient-1)"></path>
                <path d="M67.4911025,110.591268 L60.1904847,87.9824193 L27.2815461,68.7054126 L19.9809283,82.7613227 L1.33627369,71.8398786 L35.2560671,6.84587889 L52.2159638,16.7804455 L86.1357572,121.512712 L67.4911025,110.591268 Z M43.792174,37.098607 L33.9082607,55.9544422 L53.5637701,67.4680128 L43.792174,37.098607 Z" id="Combined-Shape" fill="url(#linearGradient-1)"></path>
                <path d="M67.9684063,110.113964 L60.6677885,87.5051156 L27.7588498,68.2281088 L20.4582321,82.284019 L1.81357741,71.3625749 L35.7333708,6.36857517 L52.6932675,16.3031418 L86.6130609,121.035408 L67.9684063,110.113964 Z M44.2694778,36.6213033 L34.3855644,55.4771385 L54.0410739,66.9907091 L44.2694778,36.6213033 Z" id="Combined-Shape" fill="url(#linearGradient-1)"></path>
                <path d="M68.44571,109.63666 L61.1450922,87.0278119 L28.2361536,67.7508051 L20.9355358,81.8067153 L2.29088113,70.8852712 L36.2106745,5.89127144 L53.1705712,15.8258381 L87.0903646,120.558104 L68.44571,109.63666 Z M44.7467815,36.1439995 L34.8628682,54.9998348 L54.5183776,66.5134053 L44.7467815,36.1439995 Z" id="Combined-Shape" fill="url(#linearGradient-1)"></path>
                <path d="M68.9230137,109.159356 L61.6223959,86.5505081 L28.7134573,67.2735014 L21.4128395,81.3294116 L2.76818485,70.4079675 L36.6879782,5.41396772 L53.6478749,15.3485343 L87.5676683,120.080801 L68.9230137,109.159356 Z M45.2240852,35.6666958 L35.3401719,54.522531 L54.9956813,66.0361016 L45.2240852,35.6666958 Z" id="Combined-Shape" fill="url(#linearGradient-1)"></path>
                <path d="M69.4003174,109.159356 L62.0996996,86.5505081 L29.190761,67.2735014 L21.8901432,81.3294116 L3.24548857,70.4079675 L37.165282,5.41396772 L54.1251787,15.3485343 L88.0449721,120.080801 L69.4003174,109.159356 Z M45.7013889,35.6666958 L35.8174756,54.522531 L55.472985,66.0361016 L45.7013889,35.6666958 Z" id="Combined-Shape" fill="url(#linearGradient-1)"></path>
                <path d="M69.8776211,108.682053 L62.5770034,86.0732044 L29.6680647,66.7961977 L22.3674469,80.8521078 L3.72279229,69.9306637 L37.6425857,4.936664 L54.6024824,14.8712306 L88.5222758,119.603497 L69.8776211,108.682053 Z M46.1786926,35.1893921 L36.2947793,54.0452273 L55.9502887,65.5587979 L46.1786926,35.1893921 Z" id="Combined-Shape" fill="url(#linearGradient-1)"></path>
                <path d="M70.3549249,108.682053 L63.0543071,86.0732044 L30.1453684,66.7961977 L22.8447507,80.8521078 L4.20009602,69.9306637 L38.1198894,4.936664 L55.0797861,14.8712306 L88.9995795,119.603497 L70.3549249,108.682053 Z M46.6559964,35.1893921 L36.7720831,54.0452273 L56.4275925,65.5587979 L46.6559964,35.1893921 Z" id="Combined-Shape" fill="url(#linearGradient-1)"></path>
                <path d="M70.8322286,108.204749 L63.5316108,85.5959007 L30.6226722,66.318894 L23.3220544,80.3748041 L4.67739974,69.45336 L38.5971931,4.45936028 L55.5570898,14.3939269 L89.4768832,119.126193 L70.8322286,108.204749 Z M47.1333001,34.7120884 L37.2493868,53.5679236 L56.9048962,65.0814942 L47.1333001,34.7120884 Z" id="Combined-Shape" fill="url(#linearGradient-1)"></path>
                <path d="M71.3095323,108.204749 L64.0089145,85.5959007 L31.0999759,66.318894 L23.7993581,80.3748041 L5.15470346,69.45336 L39.0744969,4.45936028 L56.0343936,14.3939269 L89.9541869,119.126193 L71.3095323,108.204749 Z M47.6106038,34.7120884 L37.7266905,53.5679236 L57.3821999,65.0814942 L47.6106038,34.7120884 Z" id="Combined-Shape" fill="url(#linearGradient-1)"></path>
                <path d="M71.786836,107.727445 L64.4862182,85.118597 L31.5772796,65.8415902 L24.2766618,79.8975004 L5.63200718,68.9760563 L39.5518006,3.98205656 L56.5116973,13.9166232 L90.4314907,118.648889 L71.786836,107.727445 Z M48.0879075,34.2347846 L38.2039942,53.0906199 L57.8595036,64.6041905 L48.0879075,34.2347846 Z" id="Combined-Shape" fill="url(#linearGradient-1)"></path>
                <path d="M72.2641397,107.727445 L64.963522,85.118597 L32.0545833,65.8415902 L24.7539655,79.8975004 L6.1093109,68.9760563 L40.0291043,3.98205656 L56.989001,13.9166232 L90.9087944,118.648889 L72.2641397,107.727445 Z M48.5652112,34.2347846 L38.6812979,53.0906199 L58.3368074,64.6041905 L48.5652112,34.2347846 Z" id="Combined-Shape" fill="url(#linearGradient-1)"></path>
                <path d="M72.7414435,107.250142 L65.4408257,84.6412933 L32.5318871,65.3642865 L25.2312693,79.4201967 L6.58661462,68.4987526 L40.506408,3.50475284 L57.4663047,13.4393195 L91.3860981,118.171586 L72.7414435,107.250142 Z M49.042515,33.7574809 L39.1586017,52.6133162 L58.8141111,64.1268867 L49.042515,33.7574809 Z" id="Combined-Shape" fill="url(#linearGradient-1)"></path>
                <path d="M73.2187472,107.250142 L65.9181294,84.6412933 L33.0091908,65.3642865 L25.708573,79.4201967 L7.06391834,68.4987526 L40.9837117,3.50475284 L57.9436084,13.4393195 L91.8634018,118.171586 L73.2187472,107.250142 Z M49.5198187,33.7574809 L39.6359054,52.6133162 L59.2914148,64.1268867 L49.5198187,33.7574809 Z" id="Combined-Shape" fill="url(#linearGradient-1)"></path>
                <path d="M73.6960509,106.772838 L66.3954331,84.1639895 L33.4864945,64.8869828 L26.1858767,78.942893 L7.54122206,68.0214489 L41.4610155,3.02744912 L58.4209122,12.9620157 L92.3407056,117.694282 L73.6960509,106.772838 Z M49.9971224,33.2801772 L40.1132091,52.1360124 L59.7687185,63.649583 L49.9971224,33.2801772 Z" id="Combined-Shape" fill="url(#linearGradient-1)"></path>
                <path d="M74.1733546,106.772838 L66.8727368,84.1639895 L33.9637982,64.8869828 L26.6631804,78.942893 L8.01852578,68.0214489 L41.9383192,3.02744912 L58.8982159,12.9620157 L92.8180093,117.694282 L74.1733546,106.772838 Z M50.4744261,33.2801772 L40.5905128,52.1360124 L60.2460222,63.649583 L50.4744261,33.2801772 Z" id="Combined-Shape" fill="url(#linearGradient-1)"></path>
                <path d="M74.6506583,106.295534 L67.3500406,83.6866858 L34.4411019,64.4096791 L27.1404842,78.4655892 L8.4958295,67.5441451 L42.4156229,2.5501454 L59.3755196,12.484712 L93.295313,117.216978 L74.6506583,106.295534 Z M50.9517298,32.8028735 L41.0678165,51.6587087 L60.723326,63.1722793 L50.9517298,32.8028735 Z" id="Combined-Shape" fill="url(#linearGradient-1)"></path>
                <path d="M75.1279621,106.295534 L67.8273443,83.6866858 L34.9184057,64.4096791 L27.6177879,78.4655892 L8.97313323,67.5441451 L42.8929266,2.5501454 L59.8528233,12.484712 L93.7726167,117.216978 L75.1279621,106.295534 Z M51.4290336,32.8028735 L41.5451203,51.6587087 L61.2006297,63.1722793 L51.4290336,32.8028735 Z" id="Combined-Shape" fill="url(#linearGradient-1)"></path>
                <path d="M75.6052658,105.81823 L68.304648,83.2093821 L35.3957094,63.9323754 L28.0950916,77.9882855 L9.45043695,67.0668414 L43.3702303,2.07284168 L60.330127,12.0074083 L94.2499204,116.739674 L75.6052658,105.81823 Z M51.9063373,32.3255698 L42.022424,51.181405 L61.6779334,62.6949756 L51.9063373,32.3255698 Z" id="Combined-Shape" fill="url(#linearGradient-1)"></path>
                <path d="M76.0825695,105.340927 L68.7819517,82.7320784 L35.8730131,63.4550716 L28.5723953,77.5109818 L9.92774067,66.5895377 L43.8475341,1.59553795 L60.8074308,11.5301046 L94.7272242,116.262371 L76.0825695,105.340927 Z M52.383641,31.848266 L42.4997277,50.7041013 L62.1552371,62.2176719 L52.383641,31.848266 Z" id="Combined-Shape" fill="url(#linearGradient-1)"></path>
                <path d="M76.5598732,105.340927 L69.2592554,82.7320784 L36.3503168,63.4550716 L29.049699,77.5109818 L10.4050444,66.5895377 L44.3248378,1.59553795 L61.2847345,11.5301046 L95.2045279,116.262371 L76.5598732,105.340927 Z M52.8609447,31.848266 L42.9770314,50.7041013 L62.6325408,62.2176719 L52.8609447,31.848266 Z" id="Combined-Shape" fill="url(#linearGradient-1)"></path>
                <path d="M77.037177,104.863623 L69.7365592,82.2547747 L36.8276205,62.9777679 L29.5270028,77.0336781 L10.8823481,66.112234 L44.8021415,1.11823423 L61.7620382,11.0528008 L95.6818316,115.785067 L77.037177,104.863623 Z M53.3382485,31.3709623 L43.4543351,50.2267976 L63.1098446,61.7403681 L53.3382485,31.3709623 Z" id="Combined-Shape" fill="url(#linearGradient-1)"></path>
                <path d="M77.5144807,104.386319 L70.2138629,81.7774709 L37.3049243,62.5004642 L30.0043065,76.5563743 L11.3596518,65.6349303 L45.2794452,0.640930513 L62.2393419,10.5754971 L96.1591353,115.307763 L77.5144807,104.386319 Z M53.8155522,30.8936586 L43.9316389,49.7494938 L63.5871483,61.2630644 L53.8155522,30.8936586 Z" id="Combined-Shape" fill="url(#linearGradient-1)"></path>
                <path d="M77.9917844,104.386319 L70.6911666,81.7774709 L37.782228,62.5004642 L30.4816102,76.5563743 L11.8369556,65.6349303 L45.7567489,0.640930513 L62.7166456,10.5754971 L96.636439,115.307763 L77.9917844,104.386319 Z M54.2928559,30.8936586 L44.4089426,49.7494938 L64.064452,61.2630644 L54.2928559,30.8936586 Z" id="Combined-Shape" fill="url(#linearGradient-1)"></path>
                <path d="M78.4690881,103.909016 L71.1684703,81.3001672 L38.2595317,62.0231605 L30.9589139,76.0790706 L12.3142593,65.1576265 L46.2340527,0.163626792 L63.1939494,10.0981934 L97.1137428,114.83046 L78.4690881,103.909016 Z M54.7701596,30.4163549 L44.8862463,49.2721901 L64.5417557,60.7857607 L54.7701596,30.4163549 Z" id="Combined-Shape" fill="url(#linearGradient-1)"></path>
                <path d="M66.5364951,110.591268 L59.2358773,87.9824193 L26.3269387,68.7054126 L19.3181559,83.1141895 L0.381666248,71.8398786 L34.3014596,6.84587889 L51.2613563,16.7804455 L85.8355534,121.835959 L66.5364951,110.591268 Z M42.8375666,37.098607 L32.9536533,55.9544422 L52.6091627,67.4680128 L42.8375666,37.098607 Z" id="Combined-Shape" fill="url(#linearGradient-2)"></path>
                <polygon id="Path-17" fill="url(#linearGradient-3)" points="34.2241939 6.9161089 46.2430168 0.145611284 63.2498189 10.176982 51.2940874 16.8705353"></polygon>
                <polygon id="Path-4" fill="#FFAE00" points="85.811994 121.860303 97.3382781 115.080964 96.4537629 112.839237 84.6878869 118.457632"></polygon>
                <polygon id="Path-3" fill="#FEA800" points="19.2968438 83.1378892 30.6079788 76.7409095 31.5759606 74.8007424 22.2575406 77.1593688"></polygon>
            </g>
            <g id="Group-28" transform="translate(69.000000, 112.000000)">
                <path d="M85.6565272,83.6807916 C85.6565272,92.7540207 83.522835,99.6597179 79.2553866,104.39809 C74.9879381,109.136463 69.2404248,111.175158 62.0126743,110.514237 C62.7046929,112.16883 63.8003727,113.872929 65.2997465,115.626586 C66.7991203,117.380243 68.3561389,118.730698 69.9708492,119.677992 C71.5855594,120.625286 73.1618005,121.279483 74.6996198,121.640604 C76.237439,122.001724 77.467676,122.078356 78.3903676,121.870501 C80.3895326,121.295288 81.8119941,120.423389 82.6577947,119.254778 L92,136.846974 C85.3873772,140.542478 77.1217226,139.480699 67.2027883,133.661608 C62.5893305,130.955054 58.0528318,126.920199 53.5931559,121.556922 C49.13348,116.193646 45.7118835,110.315683 43.3282636,103.922859 C31.4101643,96.9309276 21.3760441,86.7366224 13.225602,73.3396378 C5.07515992,59.9426532 1,46.8348288 1,34.0157712 C1,21.1967136 5.07515992,12.8703965 13.225602,9.03656988 C21.3760441,5.20274331 31.4101643,6.78177212 43.3282636,13.7737037 C55.2463629,20.7656353 65.2804831,30.9599404 73.4309252,44.356925 C81.5813673,57.7539096 85.6565272,70.8617341 85.6565272,83.6807916 Z M60.3979721,49.0096899 C55.7845143,40.8092539 50.1138908,34.7355979 43.3859316,30.7885398 C36.6579723,26.8414817 30.9873488,26.2616251 26.373891,29.0489528 C21.7604332,31.8362804 19.4537389,37.1213646 19.4537389,44.9043639 C19.4537389,52.6873631 21.7604332,60.658151 26.373891,68.8169667 C30.9873488,76.9757823 36.6579723,83.0286284 43.3859316,86.9756866 C50.1138908,90.9227447 55.7845143,91.5234111 60.3979721,88.7777038 C65.0114299,86.0319964 67.3181242,80.7677221 67.3181242,72.9847228 C67.3181242,65.2017236 65.0114299,57.2101259 60.3979721,49.0096899 Z" id="Combined-Shape" fill="url(#linearGradient-1)"></path>
                <path d="M85.6565272,83.6807916 C85.6565272,92.7540207 83.522835,99.6597179 79.2553866,104.39809 C74.9879381,109.136463 69.2404248,111.175158 62.0126743,110.514237 C62.7046929,112.16883 63.8003727,113.872929 65.2997465,115.626586 C66.7991203,117.380243 68.3561389,118.730698 69.9708492,119.677992 C71.5855594,120.625286 73.1618005,121.279483 74.6996198,121.640604 C76.237439,122.001724 77.467676,122.078356 78.3903676,121.870501 C80.3895326,121.295288 81.8119941,120.423389 82.6577947,119.254778 L92,136.846974 C85.3873772,140.542478 77.1217226,139.480699 67.2027883,133.661608 C62.5893305,130.955054 58.0528318,126.920199 53.5931559,121.556922 C49.13348,116.193646 45.7118835,110.315683 43.3282636,103.922859 C31.4101643,96.9309276 21.3760441,86.7366224 13.225602,73.3396378 C5.07515992,59.9426532 1,46.8348288 1,34.0157712 C1,21.1967136 5.07515992,12.8703965 13.225602,9.03656988 C21.3760441,5.20274331 31.4101643,6.78177212 43.3282636,13.7737037 C55.2463629,20.7656353 65.2804831,30.9599404 73.4309252,44.356925 C81.5813673,57.7539096 85.6565272,70.8617341 85.6565272,83.6807916 Z M60.3979721,49.0096899 C55.7845143,40.8092539 50.1138908,34.7355979 43.3859316,30.7885398 C36.6579723,26.8414817 30.9873488,26.2616251 26.373891,29.0489528 C21.7604332,31.8362804 19.4537389,37.1213646 19.4537389,44.9043639 C19.4537389,52.6873631 21.7604332,60.658151 26.373891,68.8169667 C30.9873488,76.9757823 36.6579723,83.0286284 43.3859316,86.9756866 C50.1138908,90.9227447 55.7845143,91.5234111 60.3979721,88.7777038 C65.0114299,86.0319964 67.3181242,80.7677221 67.3181242,72.9847228 C67.3181242,65.2017236 65.0114299,57.2101259 60.3979721,49.0096899 Z" id="Combined-Shape" fill="url(#linearGradient-1)"></path>
                <path d="M86.6565272,82.6807916 C86.6565272,91.7540207 84.522835,98.6597179 80.2553866,103.39809 C75.9879381,108.136463 70.2404248,110.175158 63.0126743,109.514237 C63.7046929,111.16883 64.8003727,112.872929 66.2997465,114.626586 C67.7991203,116.380243 69.3561389,117.730698 70.9708492,118.677992 C72.5855594,119.625286 74.1618005,120.279483 75.6996198,120.640604 C77.237439,121.001724 78.467676,121.078356 79.3903676,120.870501 C81.3895326,120.295288 82.8119941,119.423389 83.6577947,118.254778 L93,135.846974 C86.3873772,139.542478 78.1217226,138.480699 68.2027883,132.661608 C63.5893305,129.955054 59.0528318,125.920199 54.5931559,120.556922 C50.13348,115.193646 46.7118835,109.315683 44.3282636,102.922859 C32.4101643,95.9309276 22.3760441,85.7366224 14.225602,72.3396378 C6.07515992,58.9426532 2,45.8348288 2,33.0157712 C2,20.1967136 6.07515992,11.8703965 14.225602,8.03656988 C22.3760441,4.20274331 32.4101643,5.78177212 44.3282636,12.7737037 C56.2463629,19.7656353 66.2804831,29.9599404 74.4309252,43.356925 C82.5813673,56.7539096 86.6565272,69.8617341 86.6565272,82.6807916 Z M61.3979721,48.0096899 C56.7845143,39.8092539 51.1138908,33.7355979 44.3859316,29.7885398 C37.6579723,25.8414817 31.9873488,25.2616251 27.373891,28.0489528 C22.7604332,30.8362804 20.4537389,36.1213646 20.4537389,43.9043639 C20.4537389,51.6873631 22.7604332,59.658151 27.373891,67.8169667 C31.9873488,75.9757823 37.6579723,82.0286284 44.3859316,85.9756866 C51.1138908,89.9227447 56.7845143,90.5234111 61.3979721,87.7777038 C66.0114299,85.0319964 68.3181242,79.7677221 68.3181242,71.9847228 C68.3181242,64.2017236 66.0114299,56.2101259 61.3979721,48.0096899 Z" id="Combined-Shape" fill="url(#linearGradient-1)"></path>
                <path d="M86.6565272,82.6807916 C86.6565272,91.7540207 84.522835,98.6597179 80.2553866,103.39809 C75.9879381,108.136463 70.2404248,110.175158 63.0126743,109.514237 C63.7046929,111.16883 64.8003727,112.872929 66.2997465,114.626586 C67.7991203,116.380243 69.3561389,117.730698 70.9708492,118.677992 C72.5855594,119.625286 74.1618005,120.279483 75.6996198,120.640604 C77.237439,121.001724 78.467676,121.078356 79.3903676,120.870501 C81.3895326,120.295288 82.8119941,119.423389 83.6577947,118.254778 L93,135.846974 C86.3873772,139.542478 78.1217226,138.480699 68.2027883,132.661608 C63.5893305,129.955054 59.0528318,125.920199 54.5931559,120.556922 C50.13348,115.193646 46.7118835,109.315683 44.3282636,102.922859 C32.4101643,95.9309276 22.3760441,85.7366224 14.225602,72.3396378 C6.07515992,58.9426532 2,45.8348288 2,33.0157712 C2,20.1967136 6.07515992,11.8703965 14.225602,8.03656988 C22.3760441,4.20274331 32.4101643,5.78177212 44.3282636,12.7737037 C56.2463629,19.7656353 66.2804831,29.9599404 74.4309252,43.356925 C82.5813673,56.7539096 86.6565272,69.8617341 86.6565272,82.6807916 Z M61.3979721,48.0096899 C56.7845143,39.8092539 51.1138908,33.7355979 44.3859316,29.7885398 C37.6579723,25.8414817 31.9873488,25.2616251 27.373891,28.0489528 C22.7604332,30.8362804 20.4537389,36.1213646 20.4537389,43.9043639 C20.4537389,51.6873631 22.7604332,59.658151 27.373891,67.8169667 C31.9873488,75.9757823 37.6579723,82.0286284 44.3859316,85.9756866 C51.1138908,89.9227447 56.7845143,90.5234111 61.3979721,87.7777038 C66.0114299,85.0319964 68.3181242,79.7677221 68.3181242,71.9847228 C68.3181242,64.2017236 66.0114299,56.2101259 61.3979721,48.0096899 Z" id="Combined-Shape" fill="url(#linearGradient-1)"></path>
                <path d="M87.6565272,81.6807916 C87.6565272,90.7540207 85.522835,97.6597179 81.2553866,102.39809 C76.9879381,107.136463 71.2404248,109.175158 64.0126743,108.514237 C64.7046929,110.16883 65.8003727,111.872929 67.2997465,113.626586 C68.7991203,115.380243 70.3561389,116.730698 71.9708492,117.677992 C73.5855594,118.625286 75.1618005,119.279483 76.6996198,119.640604 C78.237439,120.001724 79.467676,120.078356 80.3903676,119.870501 C82.3895326,119.295288 83.8119941,118.423389 84.6577947,117.254778 L94,134.846974 C87.3873772,138.542478 79.1217226,137.480699 69.2027883,131.661608 C64.5893305,128.955054 60.0528318,124.920199 55.5931559,119.556922 C51.13348,114.193646 47.7118835,108.315683 45.3282636,101.922859 C33.4101643,94.9309276 23.3760441,84.7366224 15.225602,71.3396378 C7.07515992,57.9426532 3,44.8348288 3,32.0157712 C3,19.1967136 7.07515992,10.8703965 15.225602,7.03656988 C23.3760441,3.20274331 33.4101643,4.78177212 45.3282636,11.7737037 C57.2463629,18.7656353 67.2804831,28.9599404 75.4309252,42.356925 C83.5813673,55.7539096 87.6565272,68.8617341 87.6565272,81.6807916 Z M62.3979721,47.0096899 C57.7845143,38.8092539 52.1138908,32.7355979 45.3859316,28.7885398 C38.6579723,24.8414817 32.9873488,24.2616251 28.373891,27.0489528 C23.7604332,29.8362804 21.4537389,35.1213646 21.4537389,42.9043639 C21.4537389,50.6873631 23.7604332,58.658151 28.373891,66.8169667 C32.9873488,74.9757823 38.6579723,81.0286284 45.3859316,84.9756866 C52.1138908,88.9227447 57.7845143,89.5234111 62.3979721,86.7777038 C67.0114299,84.0319964 69.3181242,78.7677221 69.3181242,70.9847228 C69.3181242,63.2017236 67.0114299,55.2101259 62.3979721,47.0096899 Z" id="Combined-Shape" fill="url(#linearGradient-1)"></path>
                <path d="M87.6565272,81.6807916 C87.6565272,90.7540207 85.522835,97.6597179 81.2553866,102.39809 C76.9879381,107.136463 71.2404248,109.175158 64.0126743,108.514237 C64.7046929,110.16883 65.8003727,111.872929 67.2997465,113.626586 C68.7991203,115.380243 70.3561389,116.730698 71.9708492,117.677992 C73.5855594,118.625286 75.1618005,119.279483 76.6996198,119.640604 C78.237439,120.001724 79.467676,120.078356 80.3903676,119.870501 C82.3895326,119.295288 83.8119941,118.423389 84.6577947,117.254778 L94,134.846974 C87.3873772,138.542478 79.1217226,137.480699 69.2027883,131.661608 C64.5893305,128.955054 60.0528318,124.920199 55.5931559,119.556922 C51.13348,114.193646 47.7118835,108.315683 45.3282636,101.922859 C33.4101643,94.9309276 23.3760441,84.7366224 15.225602,71.3396378 C7.07515992,57.9426532 3,44.8348288 3,32.0157712 C3,19.1967136 7.07515992,10.8703965 15.225602,7.03656988 C23.3760441,3.20274331 33.4101643,4.78177212 45.3282636,11.7737037 C57.2463629,18.7656353 67.2804831,28.9599404 75.4309252,42.356925 C83.5813673,55.7539096 87.6565272,68.8617341 87.6565272,81.6807916 Z M62.3979721,47.0096899 C57.7845143,38.8092539 52.1138908,32.7355979 45.3859316,28.7885398 C38.6579723,24.8414817 32.9873488,24.2616251 28.373891,27.0489528 C23.7604332,29.8362804 21.4537389,35.1213646 21.4537389,42.9043639 C21.4537389,50.6873631 23.7604332,58.658151 28.373891,66.8169667 C32.9873488,74.9757823 38.6579723,81.0286284 45.3859316,84.9756866 C52.1138908,88.9227447 57.7845143,89.5234111 62.3979721,86.7777038 C67.0114299,84.0319964 69.3181242,78.7677221 69.3181242,70.9847228 C69.3181242,63.2017236 67.0114299,55.2101259 62.3979721,47.0096899 Z" id="Combined-Shape" fill="url(#linearGradient-1)"></path>
                <path d="M87.6565272,81.6807916 C87.6565272,90.7540207 85.522835,97.6597179 81.2553866,102.39809 C76.9879381,107.136463 71.2404248,109.175158 64.0126743,108.514237 C64.7046929,110.16883 65.8003727,111.872929 67.2997465,113.626586 C68.7991203,115.380243 70.3561389,116.730698 71.9708492,117.677992 C73.5855594,118.625286 75.1618005,119.279483 76.6996198,119.640604 C78.237439,120.001724 79.467676,120.078356 80.3903676,119.870501 C82.3895326,119.295288 83.8119941,118.423389 84.6577947,117.254778 L94,134.846974 C87.3873772,138.542478 79.1217226,137.480699 69.2027883,131.661608 C64.5893305,128.955054 60.0528318,124.920199 55.5931559,119.556922 C51.13348,114.193646 47.7118835,108.315683 45.3282636,101.922859 C33.4101643,94.9309276 23.3760441,84.7366224 15.225602,71.3396378 C7.07515992,57.9426532 3,44.8348288 3,32.0157712 C3,19.1967136 7.07515992,10.8703965 15.225602,7.03656988 C23.3760441,3.20274331 33.4101643,4.78177212 45.3282636,11.7737037 C57.2463629,18.7656353 67.2804831,28.9599404 75.4309252,42.356925 C83.5813673,55.7539096 87.6565272,68.8617341 87.6565272,81.6807916 Z M62.3979721,47.0096899 C57.7845143,38.8092539 52.1138908,32.7355979 45.3859316,28.7885398 C38.6579723,24.8414817 32.9873488,24.2616251 28.373891,27.0489528 C23.7604332,29.8362804 21.4537389,35.1213646 21.4537389,42.9043639 C21.4537389,50.6873631 23.7604332,58.658151 28.373891,66.8169667 C32.9873488,74.9757823 38.6579723,81.0286284 45.3859316,84.9756866 C52.1138908,88.9227447 57.7845143,89.5234111 62.3979721,86.7777038 C67.0114299,84.0319964 69.3181242,78.7677221 69.3181242,70.9847228 C69.3181242,63.2017236 67.0114299,55.2101259 62.3979721,47.0096899 Z" id="Combined-Shape" fill="url(#linearGradient-1)"></path>
                <path d="M88.6565272,81.6807916 C88.6565272,90.7540207 86.522835,97.6597179 82.2553866,102.39809 C77.9879381,107.136463 72.2404248,109.175158 65.0126743,108.514237 C65.7046929,110.16883 66.8003727,111.872929 68.2997465,113.626586 C69.7991203,115.380243 71.3561389,116.730698 72.9708492,117.677992 C74.5855594,118.625286 76.1618005,119.279483 77.6996198,119.640604 C79.237439,120.001724 80.467676,120.078356 81.3903676,119.870501 C83.3895326,119.295288 84.8119941,118.423389 85.6577947,117.254778 L95,134.846974 C88.3873772,138.542478 80.1217226,137.480699 70.2027883,131.661608 C65.5893305,128.955054 61.0528318,124.920199 56.5931559,119.556922 C52.13348,114.193646 48.7118835,108.315683 46.3282636,101.922859 C34.4101643,94.9309276 24.3760441,84.7366224 16.225602,71.3396378 C8.07515992,57.9426532 4,44.8348288 4,32.0157712 C4,19.1967136 8.07515992,10.8703965 16.225602,7.03656988 C24.3760441,3.20274331 34.4101643,4.78177212 46.3282636,11.7737037 C58.2463629,18.7656353 68.2804831,28.9599404 76.4309252,42.356925 C84.5813673,55.7539096 88.6565272,68.8617341 88.6565272,81.6807916 Z M63.3979721,47.0096899 C58.7845143,38.8092539 53.1138908,32.7355979 46.3859316,28.7885398 C39.6579723,24.8414817 33.9873488,24.2616251 29.373891,27.0489528 C24.7604332,29.8362804 22.4537389,35.1213646 22.4537389,42.9043639 C22.4537389,50.6873631 24.7604332,58.658151 29.373891,66.8169667 C33.9873488,74.9757823 39.6579723,81.0286284 46.3859316,84.9756866 C53.1138908,88.9227447 58.7845143,89.5234111 63.3979721,86.7777038 C68.0114299,84.0319964 70.3181242,78.7677221 70.3181242,70.9847228 C70.3181242,63.2017236 68.0114299,55.2101259 63.3979721,47.0096899 Z" id="Combined-Shape" fill="url(#linearGradient-1)"></path>
                <path d="M88.6565272,80.6807916 C88.6565272,89.7540207 86.522835,96.6597179 82.2553866,101.39809 C77.9879381,106.136463 72.2404248,108.175158 65.0126743,107.514237 C65.7046929,109.16883 66.8003727,110.872929 68.2997465,112.626586 C69.7991203,114.380243 71.3561389,115.730698 72.9708492,116.677992 C74.5855594,117.625286 76.1618005,118.279483 77.6996198,118.640604 C79.237439,119.001724 80.467676,119.078356 81.3903676,118.870501 C83.3895326,118.295288 84.8119941,117.423389 85.6577947,116.254778 L95,133.846974 C88.3873772,137.542478 80.1217226,136.480699 70.2027883,130.661608 C65.5893305,127.955054 61.0528318,123.920199 56.5931559,118.556922 C52.13348,113.193646 48.7118835,107.315683 46.3282636,100.922859 C34.4101643,93.9309276 24.3760441,83.7366224 16.225602,70.3396378 C8.07515992,56.9426532 4,43.8348288 4,31.0157712 C4,18.1967136 8.07515992,9.87039645 16.225602,6.03656988 C24.3760441,2.20274331 34.4101643,3.78177212 46.3282636,10.7737037 C58.2463629,17.7656353 68.2804831,27.9599404 76.4309252,41.356925 C84.5813673,54.7539096 88.6565272,67.8617341 88.6565272,80.6807916 Z M63.3979721,46.0096899 C58.7845143,37.8092539 53.1138908,31.7355979 46.3859316,27.7885398 C39.6579723,23.8414817 33.9873488,23.2616251 29.373891,26.0489528 C24.7604332,28.8362804 22.4537389,34.1213646 22.4537389,41.9043639 C22.4537389,49.6873631 24.7604332,57.658151 29.373891,65.8169667 C33.9873488,73.9757823 39.6579723,80.0286284 46.3859316,83.9756866 C53.1138908,87.9227447 58.7845143,88.5234111 63.3979721,85.7777038 C68.0114299,83.0319964 70.3181242,77.7677221 70.3181242,69.9847228 C70.3181242,62.2017236 68.0114299,54.2101259 63.3979721,46.0096899 Z" id="Combined-Shape" fill="url(#linearGradient-1)"></path>
                <path d="M89.6565272,80.6807916 C89.6565272,89.7540207 87.522835,96.6597179 83.2553866,101.39809 C78.9879381,106.136463 73.2404248,108.175158 66.0126743,107.514237 C66.7046929,109.16883 67.8003727,110.872929 69.2997465,112.626586 C70.7991203,114.380243 72.3561389,115.730698 73.9708492,116.677992 C75.5855594,117.625286 77.1618005,118.279483 78.6996198,118.640604 C80.237439,119.001724 81.467676,119.078356 82.3903676,118.870501 C84.3895326,118.295288 85.8119941,117.423389 86.6577947,116.254778 L96,133.846974 C89.3873772,137.542478 81.1217226,136.480699 71.2027883,130.661608 C66.5893305,127.955054 62.0528318,123.920199 57.5931559,118.556922 C53.13348,113.193646 49.7118835,107.315683 47.3282636,100.922859 C35.4101643,93.9309276 25.3760441,83.7366224 17.225602,70.3396378 C9.07515992,56.9426532 5,43.8348288 5,31.0157712 C5,18.1967136 9.07515992,9.87039645 17.225602,6.03656988 C25.3760441,2.20274331 35.4101643,3.78177212 47.3282636,10.7737037 C59.2463629,17.7656353 69.2804831,27.9599404 77.4309252,41.356925 C85.5813673,54.7539096 89.6565272,67.8617341 89.6565272,80.6807916 Z M64.3979721,46.0096899 C59.7845143,37.8092539 54.1138908,31.7355979 47.3859316,27.7885398 C40.6579723,23.8414817 34.9873488,23.2616251 30.373891,26.0489528 C25.7604332,28.8362804 23.4537389,34.1213646 23.4537389,41.9043639 C23.4537389,49.6873631 25.7604332,57.658151 30.373891,65.8169667 C34.9873488,73.9757823 40.6579723,80.0286284 47.3859316,83.9756866 C54.1138908,87.9227447 59.7845143,88.5234111 64.3979721,85.7777038 C69.0114299,83.0319964 71.3181242,77.7677221 71.3181242,69.9847228 C71.3181242,62.2017236 69.0114299,54.2101259 64.3979721,46.0096899 Z" id="Combined-Shape" fill="url(#linearGradient-1)"></path>
                <path d="M89.6565272,79.6807916 C89.6565272,88.7540207 87.522835,95.6597179 83.2553866,100.39809 C78.9879381,105.136463 73.2404248,107.175158 66.0126743,106.514237 C66.7046929,108.16883 67.8003727,109.872929 69.2997465,111.626586 C70.7991203,113.380243 72.3561389,114.730698 73.9708492,115.677992 C75.5855594,116.625286 77.1618005,117.279483 78.6996198,117.640604 C80.237439,118.001724 81.467676,118.078356 82.3903676,117.870501 C84.3895326,117.295288 85.8119941,116.423389 86.6577947,115.254778 L96,132.846974 C89.3873772,136.542478 81.1217226,135.480699 71.2027883,129.661608 C66.5893305,126.955054 62.0528318,122.920199 57.5931559,117.556922 C53.13348,112.193646 49.7118835,106.315683 47.3282636,99.9228592 C35.4101643,92.9309276 25.3760441,82.7366224 17.225602,69.3396378 C9.07515992,55.9426532 5,42.8348288 5,30.0157712 C5,17.1967136 9.07515992,8.87039645 17.225602,5.03656988 C25.3760441,1.20274331 35.4101643,2.78177212 47.3282636,9.77370369 C59.2463629,16.7656353 69.2804831,26.9599404 77.4309252,40.356925 C85.5813673,53.7539096 89.6565272,66.8617341 89.6565272,79.6807916 Z M64.3979721,45.0096899 C59.7845143,36.8092539 54.1138908,30.7355979 47.3859316,26.7885398 C40.6579723,22.8414817 34.9873488,22.2616251 30.373891,25.0489528 C25.7604332,27.8362804 23.4537389,33.1213646 23.4537389,40.9043639 C23.4537389,48.6873631 25.7604332,56.658151 30.373891,64.8169667 C34.9873488,72.9757823 40.6579723,79.0286284 47.3859316,82.9756866 C54.1138908,86.9227447 59.7845143,87.5234111 64.3979721,84.7777038 C69.0114299,82.0319964 71.3181242,76.7677221 71.3181242,68.9847228 C71.3181242,61.2017236 69.0114299,53.2101259 64.3979721,45.0096899 Z" id="Combined-Shape" fill="url(#linearGradient-1)"></path>
                <path d="M90.6565272,79.6807916 C90.6565272,88.7540207 88.522835,95.6597179 84.2553866,100.39809 C79.9879381,105.136463 74.2404248,107.175158 67.0126743,106.514237 C67.7046929,108.16883 68.8003727,109.872929 70.2997465,111.626586 C71.7991203,113.380243 73.3561389,114.730698 74.9708492,115.677992 C76.5855594,116.625286 78.1618005,117.279483 79.6996198,117.640604 C81.237439,118.001724 82.467676,118.078356 83.3903676,117.870501 C85.3895326,117.295288 86.8119941,116.423389 87.6577947,115.254778 L97,132.846974 C90.3873772,136.542478 82.1217226,135.480699 72.2027883,129.661608 C67.5893305,126.955054 63.0528318,122.920199 58.5931559,117.556922 C54.13348,112.193646 50.7118835,106.315683 48.3282636,99.9228592 C36.4101643,92.9309276 26.3760441,82.7366224 18.225602,69.3396378 C10.0751599,55.9426532 6,42.8348288 6,30.0157712 C6,17.1967136 10.0751599,8.87039645 18.225602,5.03656988 C26.3760441,1.20274331 36.4101643,2.78177212 48.3282636,9.77370369 C60.2463629,16.7656353 70.2804831,26.9599404 78.4309252,40.356925 C86.5813673,53.7539096 90.6565272,66.8617341 90.6565272,79.6807916 Z M65.3979721,45.0096899 C60.7845143,36.8092539 55.1138908,30.7355979 48.3859316,26.7885398 C41.6579723,22.8414817 35.9873488,22.2616251 31.373891,25.0489528 C26.7604332,27.8362804 24.4537389,33.1213646 24.4537389,40.9043639 C24.4537389,48.6873631 26.7604332,56.658151 31.373891,64.8169667 C35.9873488,72.9757823 41.6579723,79.0286284 48.3859316,82.9756866 C55.1138908,86.9227447 60.7845143,87.5234111 65.3979721,84.7777038 C70.0114299,82.0319964 72.3181242,76.7677221 72.3181242,68.9847228 C72.3181242,61.2017236 70.0114299,53.2101259 65.3979721,45.0096899 Z" id="Combined-Shape" fill="url(#linearGradient-1)"></path>
                <path d="M91.6565272,79.6807916 C91.6565272,88.7540207 89.522835,95.6597179 85.2553866,100.39809 C80.9879381,105.136463 75.2404248,107.175158 68.0126743,106.514237 C68.7046929,108.16883 69.8003727,109.872929 71.2997465,111.626586 C72.7991203,113.380243 74.3561389,114.730698 75.9708492,115.677992 C77.5855594,116.625286 79.1618005,117.279483 80.6996198,117.640604 C82.237439,118.001724 83.467676,118.078356 84.3903676,117.870501 C86.3895326,117.295288 87.8119941,116.423389 88.6577947,115.254778 L98,132.846974 C91.3873772,136.542478 83.1217226,135.480699 73.2027883,129.661608 C68.5893305,126.955054 64.0528318,122.920199 59.5931559,117.556922 C55.13348,112.193646 51.7118835,106.315683 49.3282636,99.9228592 C37.4101643,92.9309276 27.3760441,82.7366224 19.225602,69.3396378 C11.0751599,55.9426532 7,42.8348288 7,30.0157712 C7,17.1967136 11.0751599,8.87039645 19.225602,5.03656988 C27.3760441,1.20274331 37.4101643,2.78177212 49.3282636,9.77370369 C61.2463629,16.7656353 71.2804831,26.9599404 79.4309252,40.356925 C87.5813673,53.7539096 91.6565272,66.8617341 91.6565272,79.6807916 Z M66.3979721,45.0096899 C61.7845143,36.8092539 56.1138908,30.7355979 49.3859316,26.7885398 C42.6579723,22.8414817 36.9873488,22.2616251 32.373891,25.0489528 C27.7604332,27.8362804 25.4537389,33.1213646 25.4537389,40.9043639 C25.4537389,48.6873631 27.7604332,56.658151 32.373891,64.8169667 C36.9873488,72.9757823 42.6579723,79.0286284 49.3859316,82.9756866 C56.1138908,86.9227447 61.7845143,87.5234111 66.3979721,84.7777038 C71.0114299,82.0319964 73.3181242,76.7677221 73.3181242,68.9847228 C73.3181242,61.2017236 71.0114299,53.2101259 66.3979721,45.0096899 Z" id="Combined-Shape" fill="url(#linearGradient-1)"></path>
                <path d="M91.6565272,79.6807916 C91.6565272,88.7540207 89.522835,95.6597179 85.2553866,100.39809 C80.9879381,105.136463 75.2404248,107.175158 68.0126743,106.514237 C68.7046929,108.16883 69.8003727,109.872929 71.2997465,111.626586 C72.7991203,113.380243 74.3561389,114.730698 75.9708492,115.677992 C77.5855594,116.625286 79.1618005,117.279483 80.6996198,117.640604 C82.237439,118.001724 83.467676,118.078356 84.3903676,117.870501 C86.3895326,117.295288 87.8119941,116.423389 88.6577947,115.254778 L98,132.846974 C91.3873772,136.542478 83.1217226,135.480699 73.2027883,129.661608 C68.5893305,126.955054 64.0528318,122.920199 59.5931559,117.556922 C55.13348,112.193646 51.7118835,106.315683 49.3282636,99.9228592 C37.4101643,92.9309276 27.3760441,82.7366224 19.225602,69.3396378 C11.0751599,55.9426532 7,42.8348288 7,30.0157712 C7,17.1967136 11.0751599,8.87039645 19.225602,5.03656988 C27.3760441,1.20274331 37.4101643,2.78177212 49.3282636,9.77370369 C61.2463629,16.7656353 71.2804831,26.9599404 79.4309252,40.356925 C87.5813673,53.7539096 91.6565272,66.8617341 91.6565272,79.6807916 Z M66.3979721,45.0096899 C61.7845143,36.8092539 56.1138908,30.7355979 49.3859316,26.7885398 C42.6579723,22.8414817 36.9873488,22.2616251 32.373891,25.0489528 C27.7604332,27.8362804 25.4537389,33.1213646 25.4537389,40.9043639 C25.4537389,48.6873631 27.7604332,56.658151 32.373891,64.8169667 C36.9873488,72.9757823 42.6579723,79.0286284 49.3859316,82.9756866 C56.1138908,86.9227447 61.7845143,87.5234111 66.3979721,84.7777038 C71.0114299,82.0319964 73.3181242,76.7677221 73.3181242,68.9847228 C73.3181242,61.2017236 71.0114299,53.2101259 66.3979721,45.0096899 Z" id="Combined-Shape" fill="url(#linearGradient-1)"></path>
                <path d="M92.6565272,79.6807916 C92.6565272,88.7540207 90.522835,95.6597179 86.2553866,100.39809 C81.9879381,105.136463 76.2404248,107.175158 69.0126743,106.514237 C69.7046929,108.16883 70.8003727,109.872929 72.2997465,111.626586 C73.7991203,113.380243 75.3561389,114.730698 76.9708492,115.677992 C78.5855594,116.625286 80.1618005,117.279483 81.6996198,117.640604 C83.237439,118.001724 84.467676,118.078356 85.3903676,117.870501 C87.3895326,117.295288 88.8119941,116.423389 89.6577947,115.254778 L99,132.846974 C92.3873772,136.542478 84.1217226,135.480699 74.2027883,129.661608 C69.5893305,126.955054 65.0528318,122.920199 60.5931559,117.556922 C56.13348,112.193646 52.7118835,106.315683 50.3282636,99.9228592 C38.4101643,92.9309276 28.3760441,82.7366224 20.225602,69.3396378 C12.0751599,55.9426532 8,42.8348288 8,30.0157712 C8,17.1967136 12.0751599,8.87039645 20.225602,5.03656988 C28.3760441,1.20274331 38.4101643,2.78177212 50.3282636,9.77370369 C62.2463629,16.7656353 72.2804831,26.9599404 80.4309252,40.356925 C88.5813673,53.7539096 92.6565272,66.8617341 92.6565272,79.6807916 Z M67.3979721,45.0096899 C62.7845143,36.8092539 57.1138908,30.7355979 50.3859316,26.7885398 C43.6579723,22.8414817 37.9873488,22.2616251 33.373891,25.0489528 C28.7604332,27.8362804 26.4537389,33.1213646 26.4537389,40.9043639 C26.4537389,48.6873631 28.7604332,56.658151 33.373891,64.8169667 C37.9873488,72.9757823 43.6579723,79.0286284 50.3859316,82.9756866 C57.1138908,86.9227447 62.7845143,87.5234111 67.3979721,84.7777038 C72.0114299,82.0319964 74.3181242,76.7677221 74.3181242,68.9847228 C74.3181242,61.2017236 72.0114299,53.2101259 67.3979721,45.0096899 Z" id="Combined-Shape" fill="url(#linearGradient-1)"></path>
                <path d="M92.6565272,79.6807916 C92.6565272,88.7540207 90.522835,95.6597179 86.2553866,100.39809 C81.9879381,105.136463 76.2404248,107.175158 69.0126743,106.514237 C69.7046929,108.16883 70.8003727,109.872929 72.2997465,111.626586 C73.7991203,113.380243 75.3561389,114.730698 76.9708492,115.677992 C78.5855594,116.625286 80.1618005,117.279483 81.6996198,117.640604 C83.237439,118.001724 84.467676,118.078356 85.3903676,117.870501 C87.3895326,117.295288 88.8119941,116.423389 89.6577947,115.254778 L99,132.846974 C92.3873772,136.542478 84.1217226,135.480699 74.2027883,129.661608 C69.5893305,126.955054 65.0528318,122.920199 60.5931559,117.556922 C56.13348,112.193646 52.7118835,106.315683 50.3282636,99.9228592 C38.4101643,92.9309276 28.3760441,82.7366224 20.225602,69.3396378 C12.0751599,55.9426532 8,42.8348288 8,30.0157712 C8,17.1967136 12.0751599,8.87039645 20.225602,5.03656988 C28.3760441,1.20274331 38.4101643,2.78177212 50.3282636,9.77370369 C62.2463629,16.7656353 72.2804831,26.9599404 80.4309252,40.356925 C88.5813673,53.7539096 92.6565272,66.8617341 92.6565272,79.6807916 Z M67.3979721,45.0096899 C62.7845143,36.8092539 57.1138908,30.7355979 50.3859316,26.7885398 C43.6579723,22.8414817 37.9873488,22.2616251 33.373891,25.0489528 C28.7604332,27.8362804 26.4537389,33.1213646 26.4537389,40.9043639 C26.4537389,48.6873631 28.7604332,56.658151 33.373891,64.8169667 C37.9873488,72.9757823 43.6579723,79.0286284 50.3859316,82.9756866 C57.1138908,86.9227447 62.7845143,87.5234111 67.3979721,84.7777038 C72.0114299,82.0319964 74.3181242,76.7677221 74.3181242,68.9847228 C74.3181242,61.2017236 72.0114299,53.2101259 67.3979721,45.0096899 Z" id="Combined-Shape" fill="url(#linearGradient-1)"></path>
                <path d="M93.6565272,79.6807916 C93.6565272,88.7540207 91.522835,95.6597179 87.2553866,100.39809 C82.9879381,105.136463 77.2404248,107.175158 70.0126743,106.514237 C70.7046929,108.16883 71.8003727,109.872929 73.2997465,111.626586 C74.7991203,113.380243 76.3561389,114.730698 77.9708492,115.677992 C79.5855594,116.625286 81.1618005,117.279483 82.6996198,117.640604 C84.237439,118.001724 85.467676,118.078356 86.3903676,117.870501 C88.3895326,117.295288 89.8119941,116.423389 90.6577947,115.254778 L100,132.846974 C93.3873772,136.542478 85.1217226,135.480699 75.2027883,129.661608 C70.5893305,126.955054 66.0528318,122.920199 61.5931559,117.556922 C57.13348,112.193646 53.7118835,106.315683 51.3282636,99.9228592 C39.4101643,92.9309276 29.3760441,82.7366224 21.225602,69.3396378 C13.0751599,55.9426532 9,42.8348288 9,30.0157712 C9,17.1967136 13.0751599,8.87039645 21.225602,5.03656988 C29.3760441,1.20274331 39.4101643,2.78177212 51.3282636,9.77370369 C63.2463629,16.7656353 73.2804831,26.9599404 81.4309252,40.356925 C89.5813673,53.7539096 93.6565272,66.8617341 93.6565272,79.6807916 Z M68.3979721,45.0096899 C63.7845143,36.8092539 58.1138908,30.7355979 51.3859316,26.7885398 C44.6579723,22.8414817 38.9873488,22.2616251 34.373891,25.0489528 C29.7604332,27.8362804 27.4537389,33.1213646 27.4537389,40.9043639 C27.4537389,48.6873631 29.7604332,56.658151 34.373891,64.8169667 C38.9873488,72.9757823 44.6579723,79.0286284 51.3859316,82.9756866 C58.1138908,86.9227447 63.7845143,87.5234111 68.3979721,84.7777038 C73.0114299,82.0319964 75.3181242,76.7677221 75.3181242,68.9847228 C75.3181242,61.2017236 73.0114299,53.2101259 68.3979721,45.0096899 Z" id="Combined-Shape" fill="url(#linearGradient-1)"></path>
                <path d="M93.6565272,79.6807916 C93.6565272,88.7540207 91.522835,95.6597179 87.2553866,100.39809 C82.9879381,105.136463 77.2404248,107.175158 70.0126743,106.514237 C70.7046929,108.16883 71.8003727,109.872929 73.2997465,111.626586 C74.7991203,113.380243 76.3561389,114.730698 77.9708492,115.677992 C79.5855594,116.625286 81.1618005,117.279483 82.6996198,117.640604 C84.237439,118.001724 85.467676,118.078356 86.3903676,117.870501 C88.3895326,117.295288 89.8119941,116.423389 90.6577947,115.254778 L100,132.846974 C93.3873772,136.542478 85.1217226,135.480699 75.2027883,129.661608 C70.5893305,126.955054 66.0528318,122.920199 61.5931559,117.556922 C57.13348,112.193646 53.7118835,106.315683 51.3282636,99.9228592 C39.4101643,92.9309276 29.3760441,82.7366224 21.225602,69.3396378 C13.0751599,55.9426532 9,42.8348288 9,30.0157712 C9,17.1967136 13.0751599,8.87039645 21.225602,5.03656988 C29.3760441,1.20274331 39.4101643,2.78177212 51.3282636,9.77370369 C63.2463629,16.7656353 73.2804831,26.9599404 81.4309252,40.356925 C89.5813673,53.7539096 93.6565272,66.8617341 93.6565272,79.6807916 Z M68.3979721,45.0096899 C63.7845143,36.8092539 58.1138908,30.7355979 51.3859316,26.7885398 C44.6579723,22.8414817 38.9873488,22.2616251 34.373891,25.0489528 C29.7604332,27.8362804 27.4537389,33.1213646 27.4537389,40.9043639 C27.4537389,48.6873631 29.7604332,56.658151 34.373891,64.8169667 C38.9873488,72.9757823 44.6579723,79.0286284 51.3859316,82.9756866 C58.1138908,86.9227447 63.7845143,87.5234111 68.3979721,84.7777038 C73.0114299,82.0319964 75.3181242,76.7677221 75.3181242,68.9847228 C75.3181242,61.2017236 73.0114299,53.2101259 68.3979721,45.0096899 Z" id="Combined-Shape" fill="url(#linearGradient-1)"></path>
                <path d="M93.6565272,78.6807916 C93.6565272,87.7540207 91.522835,94.6597179 87.2553866,99.3980905 C82.9879381,104.136463 77.2404248,106.175158 70.0126743,105.514237 C70.7046929,107.16883 71.8003727,108.872929 73.2997465,110.626586 C74.7991203,112.380243 76.3561389,113.730698 77.9708492,114.677992 C79.5855594,115.625286 81.1618005,116.279483 82.6996198,116.640604 C84.237439,117.001724 85.467676,117.078356 86.3903676,116.870501 C88.3895326,116.295288 89.8119941,115.423389 90.6577947,114.254778 L100,131.846974 C93.3873772,135.542478 85.1217226,134.480699 75.2027883,128.661608 C70.5893305,125.955054 66.0528318,121.920199 61.5931559,116.556922 C57.13348,111.193646 53.7118835,105.315683 51.3282636,98.9228592 C39.4101643,91.9309276 29.3760441,81.7366224 21.225602,68.3396378 C13.0751599,54.9426532 9,41.8348288 9,29.0157712 C9,16.1967136 13.0751599,7.87039645 21.225602,4.03656988 C29.3760441,0.202743309 39.4101643,1.78177212 51.3282636,8.77370369 C63.2463629,15.7656353 73.2804831,25.9599404 81.4309252,39.356925 C89.5813673,52.7539096 93.6565272,65.8617341 93.6565272,78.6807916 Z M68.3979721,44.0096899 C63.7845143,35.8092539 58.1138908,29.7355979 51.3859316,25.7885398 C44.6579723,21.8414817 38.9873488,21.2616251 34.373891,24.0489528 C29.7604332,26.8362804 27.4537389,32.1213646 27.4537389,39.9043639 C27.4537389,47.6873631 29.7604332,55.658151 34.373891,63.8169667 C38.9873488,71.9757823 44.6579723,78.0286284 51.3859316,81.9756866 C58.1138908,85.9227447 63.7845143,86.5234111 68.3979721,83.7777038 C73.0114299,81.0319964 75.3181242,75.7677221 75.3181242,67.9847228 C75.3181242,60.2017236 73.0114299,52.2101259 68.3979721,44.0096899 Z" id="Combined-Shape" fill="url(#linearGradient-1)"></path>
                <path d="M94.6565272,78.6807916 C94.6565272,87.7540207 92.522835,94.6597179 88.2553866,99.3980905 C83.9879381,104.136463 78.2404248,106.175158 71.0126743,105.514237 C71.7046929,107.16883 72.8003727,108.872929 74.2997465,110.626586 C75.7991203,112.380243 77.3561389,113.730698 78.9708492,114.677992 C80.5855594,115.625286 82.1618005,116.279483 83.6996198,116.640604 C85.237439,117.001724 86.467676,117.078356 87.3903676,116.870501 C89.3895326,116.295288 90.8119941,115.423389 91.6577947,114.254778 L101,131.846974 C94.3873772,135.542478 86.1217226,134.480699 76.2027883,128.661608 C71.5893305,125.955054 67.0528318,121.920199 62.5931559,116.556922 C58.13348,111.193646 54.7118835,105.315683 52.3282636,98.9228592 C40.4101643,91.9309276 30.3760441,81.7366224 22.225602,68.3396378 C14.0751599,54.9426532 10,41.8348288 10,29.0157712 C10,16.1967136 14.0751599,7.87039645 22.225602,4.03656988 C30.3760441,0.202743309 40.4101643,1.78177212 52.3282636,8.77370369 C64.2463629,15.7656353 74.2804831,25.9599404 82.4309252,39.356925 C90.5813673,52.7539096 94.6565272,65.8617341 94.6565272,78.6807916 Z M69.3979721,44.0096899 C64.7845143,35.8092539 59.1138908,29.7355979 52.3859316,25.7885398 C45.6579723,21.8414817 39.9873488,21.2616251 35.373891,24.0489528 C30.7604332,26.8362804 28.4537389,32.1213646 28.4537389,39.9043639 C28.4537389,47.6873631 30.7604332,55.658151 35.373891,63.8169667 C39.9873488,71.9757823 45.6579723,78.0286284 52.3859316,81.9756866 C59.1138908,85.9227447 64.7845143,86.5234111 69.3979721,83.7777038 C74.0114299,81.0319964 76.3181242,75.7677221 76.3181242,67.9847228 C76.3181242,60.2017236 74.0114299,52.2101259 69.3979721,44.0096899 Z" id="Combined-Shape" fill="url(#linearGradient-1)"></path>
                <path d="M94.6565272,78.6807916 C94.6565272,87.7540207 92.522835,94.6597179 88.2553866,99.3980905 C83.9879381,104.136463 78.2404248,106.175158 71.0126743,105.514237 C71.7046929,107.16883 72.8003727,108.872929 74.2997465,110.626586 C75.7991203,112.380243 77.3561389,113.730698 78.9708492,114.677992 C80.5855594,115.625286 82.1618005,116.279483 83.6996198,116.640604 C85.237439,117.001724 86.467676,117.078356 87.3903676,116.870501 C89.3895326,116.295288 90.8119941,115.423389 91.6577947,114.254778 L101,131.846974 C94.3873772,135.542478 86.1217226,134.480699 76.2027883,128.661608 C71.5893305,125.955054 67.0528318,121.920199 62.5931559,116.556922 C58.13348,111.193646 54.7118835,105.315683 52.3282636,98.9228592 C40.4101643,91.9309276 30.3760441,81.7366224 22.225602,68.3396378 C14.0751599,54.9426532 10,41.8348288 10,29.0157712 C10,16.1967136 14.0751599,7.87039645 22.225602,4.03656988 C30.3760441,0.202743309 40.4101643,1.78177212 52.3282636,8.77370369 C64.2463629,15.7656353 74.2804831,25.9599404 82.4309252,39.356925 C90.5813673,52.7539096 94.6565272,65.8617341 94.6565272,78.6807916 Z M69.3979721,44.0096899 C64.7845143,35.8092539 59.1138908,29.7355979 52.3859316,25.7885398 C45.6579723,21.8414817 39.9873488,21.2616251 35.373891,24.0489528 C30.7604332,26.8362804 28.4537389,32.1213646 28.4537389,39.9043639 C28.4537389,47.6873631 30.7604332,55.658151 35.373891,63.8169667 C39.9873488,71.9757823 45.6579723,78.0286284 52.3859316,81.9756866 C59.1138908,85.9227447 64.7845143,86.5234111 69.3979721,83.7777038 C74.0114299,81.0319964 76.3181242,75.7677221 76.3181242,67.9847228 C76.3181242,60.2017236 74.0114299,52.2101259 69.3979721,44.0096899 Z" id="Combined-Shape" fill="url(#linearGradient-1)"></path>
                <path d="M95.6565272,77.6807916 C95.6565272,86.7540207 93.522835,93.6597179 89.2553866,98.3980905 C84.9879381,103.136463 79.2404248,105.175158 72.0126743,104.514237 C72.7046929,106.16883 73.8003727,107.872929 75.2997465,109.626586 C76.7991203,111.380243 78.3561389,112.730698 79.9708492,113.677992 C81.5855594,114.625286 83.1618005,115.279483 84.6996198,115.640604 C86.237439,116.001724 87.467676,116.078356 88.3903676,115.870501 C90.3895326,115.295288 91.8119941,114.423389 92.6577947,113.254778 L102,130.846974 C95.3873772,134.542478 87.1217226,133.480699 77.2027883,127.661608 C72.5893305,124.955054 68.0528318,120.920199 63.5931559,115.556922 C59.13348,110.193646 55.7118835,104.315683 53.3282636,97.9228592 C41.4101643,90.9309276 31.3760441,80.7366224 23.225602,67.3396378 C15.0751599,53.9426532 11,40.8348288 11,28.0157712 C11,15.1967136 15.0751599,6.87039645 23.225602,3.03656988 C31.3760441,-0.797256691 41.4101643,0.781772123 53.3282636,7.77370369 C65.2463629,14.7656353 75.2804831,24.9599404 83.4309252,38.356925 C91.5813673,51.7539096 95.6565272,64.8617341 95.6565272,77.6807916 Z M70.3979721,43.0096899 C65.7845143,34.8092539 60.1138908,28.7355979 53.3859316,24.7885398 C46.6579723,20.8414817 40.9873488,20.2616251 36.373891,23.0489528 C31.7604332,25.8362804 29.4537389,31.1213646 29.4537389,38.9043639 C29.4537389,46.6873631 31.7604332,54.658151 36.373891,62.8169667 C40.9873488,70.9757823 46.6579723,77.0286284 53.3859316,80.9756866 C60.1138908,84.9227447 65.7845143,85.5234111 70.3979721,82.7777038 C75.0114299,80.0319964 77.3181242,74.7677221 77.3181242,66.9847228 C77.3181242,59.2017236 75.0114299,51.2101259 70.3979721,43.0096899 Z" id="Combined-Shape" fill="url(#linearGradient-1)"></path>
                <path d="M95.6565272,76.6807916 C95.6565272,85.7540207 93.522835,92.6597179 89.2553866,97.3980905 C84.9879381,102.136463 79.2404248,104.175158 72.0126743,103.514237 C72.7046929,105.16883 73.8003727,106.872929 75.2997465,108.626586 C76.7991203,110.380243 78.3561389,111.730698 79.9708492,112.677992 C81.5855594,113.625286 83.1618005,114.279483 84.6996198,114.640604 C86.237439,115.001724 87.467676,115.078356 88.3903676,114.870501 C90.3895326,114.295288 91.8119941,113.423389 92.6577947,112.254778 L102,129.846974 C95.3873772,133.542478 87.1217226,132.480699 77.2027883,126.661608 C72.5893305,123.955054 68.0528318,119.920199 63.5931559,114.556922 C59.13348,109.193646 55.7118835,103.315683 53.3282636,96.9228592 C41.4101643,89.9309276 31.3760441,79.7366224 23.225602,66.3396378 C15.0751599,52.9426532 11,39.8348288 11,27.0157712 C11,14.1967136 15.0751599,5.87039645 23.225602,2.03656988 C31.3760441,-1.79725669 41.4101643,-0.218227877 53.3282636,6.77370369 C65.2463629,13.7656353 75.2804831,23.9599404 83.4309252,37.356925 C91.5813673,50.7539096 95.6565272,63.8617341 95.6565272,76.6807916 Z M70.3979721,42.0096899 C65.7845143,33.8092539 60.1138908,27.7355979 53.3859316,23.7885398 C46.6579723,19.8414817 40.9873488,19.2616251 36.373891,22.0489528 C31.7604332,24.8362804 29.4537389,30.1213646 29.4537389,37.9043639 C29.4537389,45.6873631 31.7604332,53.658151 36.373891,61.8169667 C40.9873488,69.9757823 46.6579723,76.0286284 53.3859316,79.9756866 C60.1138908,83.9227447 65.7845143,84.5234111 70.3979721,81.7777038 C75.0114299,79.0319964 77.3181242,73.7677221 77.3181242,65.9847228 C77.3181242,58.2017236 75.0114299,50.2101259 70.3979721,42.0096899 Z" id="Combined-Shape" fill="url(#linearGradient-1)"></path>
                <path d="M96.6565272,76.6807916 C96.6565272,85.7540207 94.522835,92.6597179 90.2553866,97.3980905 C85.9879381,102.136463 80.2404248,104.175158 73.0126743,103.514237 C73.7046929,105.16883 74.8003727,106.872929 76.2997465,108.626586 C77.7991203,110.380243 79.3561389,111.730698 80.9708492,112.677992 C82.5855594,113.625286 84.1618005,114.279483 85.6996198,114.640604 C87.237439,115.001724 88.467676,115.078356 89.3903676,114.870501 C91.3895326,114.295288 92.8119941,113.423389 93.6577947,112.254778 L103,129.846974 C96.3873772,133.542478 88.1217226,132.480699 78.2027883,126.661608 C73.5893305,123.955054 69.0528318,119.920199 64.5931559,114.556922 C60.13348,109.193646 56.7118835,103.315683 54.3282636,96.9228592 C42.4101643,89.9309276 32.3760441,79.7366224 24.225602,66.3396378 C16.0751599,52.9426532 12,39.8348288 12,27.0157712 C12,14.1967136 16.0751599,5.87039645 24.225602,2.03656988 C32.3760441,-1.79725669 42.4101643,-0.218227877 54.3282636,6.77370369 C66.2463629,13.7656353 76.2804831,23.9599404 84.4309252,37.356925 C92.5813673,50.7539096 96.6565272,63.8617341 96.6565272,76.6807916 Z M71.3979721,42.0096899 C66.7845143,33.8092539 61.1138908,27.7355979 54.3859316,23.7885398 C47.6579723,19.8414817 41.9873488,19.2616251 37.373891,22.0489528 C32.7604332,24.8362804 30.4537389,30.1213646 30.4537389,37.9043639 C30.4537389,45.6873631 32.7604332,53.658151 37.373891,61.8169667 C41.9873488,69.9757823 47.6579723,76.0286284 54.3859316,79.9756866 C61.1138908,83.9227447 66.7845143,84.5234111 71.3979721,81.7777038 C76.0114299,79.0319964 78.3181242,73.7677221 78.3181242,65.9847228 C78.3181242,58.2017236 76.0114299,50.2101259 71.3979721,42.0096899 Z" id="Combined-Shape" fill="url(#linearGradient-1)"></path>
                <path d="M96.6565272,76.6807916 C96.6565272,85.7540207 94.522835,92.6597179 90.2553866,97.3980905 C85.9879381,102.136463 80.2404248,104.175158 73.0126743,103.514237 C73.7046929,105.16883 74.8003727,106.872929 76.2997465,108.626586 C77.7991203,110.380243 79.3561389,111.730698 80.9708492,112.677992 C82.5855594,113.625286 84.1618005,114.279483 85.6996198,114.640604 C87.237439,115.001724 88.467676,115.078356 89.3903676,114.870501 C91.3895326,114.295288 92.8119941,113.423389 93.6577947,112.254778 L103,129.846974 C96.3873772,133.542478 88.1217226,132.480699 78.2027883,126.661608 C73.5893305,123.955054 69.0528318,119.920199 64.5931559,114.556922 C60.13348,109.193646 56.7118835,103.315683 54.3282636,96.9228592 C42.4101643,89.9309276 32.3760441,79.7366224 24.225602,66.3396378 C16.0751599,52.9426532 12,39.8348288 12,27.0157712 C12,14.1967136 16.0751599,5.87039645 24.225602,2.03656988 C32.3760441,-1.79725669 42.4101643,-0.218227877 54.3282636,6.77370369 C66.2463629,13.7656353 76.2804831,23.9599404 84.4309252,37.356925 C92.5813673,50.7539096 96.6565272,63.8617341 96.6565272,76.6807916 Z M71.3979721,42.0096899 C66.7845143,33.8092539 61.1138908,27.7355979 54.3859316,23.7885398 C47.6579723,19.8414817 41.9873488,19.2616251 37.373891,22.0489528 C32.7604332,24.8362804 30.4537389,30.1213646 30.4537389,37.9043639 C30.4537389,45.6873631 32.7604332,53.658151 37.373891,61.8169667 C41.9873488,69.9757823 47.6579723,76.0286284 54.3859316,79.9756866 C61.1138908,83.9227447 66.7845143,84.5234111 71.3979721,81.7777038 C76.0114299,79.0319964 78.3181242,73.7677221 78.3181242,65.9847228 C78.3181242,58.2017236 76.0114299,50.2101259 71.3979721,42.0096899 Z" id="Combined-Shape" fill="url(#linearGradient-1)"></path>
                <path d="M84.448855,83.5100864 C84.448855,92.5631168 82.320397,99.4534407 78.0634171,104.181265 C73.8064371,108.909089 68.0730232,110.943246 60.8630031,110.283796 C61.5533242,111.934705 62.6463162,113.635011 64.1420118,115.384763 C65.6377074,117.134516 67.1909065,118.481965 68.8016557,119.42715 C70.4124049,120.372335 71.9847793,121.025076 73.5188261,121.385393 C75.0528729,121.74571 76.2800919,121.822171 77.20052,121.614779 C79.1947809,121.040846 80.6137529,120.170888 81.4574787,119.004878 L91,136.990239 C84.4035987,140.677516 75.9349872,139.185773 66.0403852,133.379636 C61.4382448,130.679108 56.9128746,126.653235 52.4641388,121.301898 C48.015403,115.950561 44.6022001,110.085684 42.2244275,103.707091 C30.3355647,96.7307251 20.3260593,86.5591143 12.1956112,73.1919538 C4.06516309,59.8247934 0,46.7461493 0,33.9556292 C0,21.1651092 4.06516309,12.8573279 12.1956112,9.03203611 C20.3260593,5.20674433 30.3355647,6.78225794 42.2244275,13.7586242 C54.1132903,20.7349905 64.1227957,30.9066013 72.2532438,44.2737618 C80.3836919,57.6409222 84.448855,70.7195663 84.448855,83.5100864 Z M59.252262,48.9161687 C54.6501216,40.7339884 48.9934088,34.6738535 42.281954,30.7355822 C35.5704991,26.7973109 29.9137864,26.2187453 25.3116459,28.9998678 C20.7095055,31.7809904 18.4084698,37.054309 18.4084698,44.8199819 C18.4084698,52.5856548 20.7095055,60.5386983 25.3116459,68.6793509 C29.9137864,76.8200036 35.5704991,82.859375 42.281954,86.7976463 C48.9934088,90.7359175 54.6501216,91.3352467 59.252262,88.5956518 C63.8544025,85.8560569 66.1554382,80.6035018 66.1554382,72.8378289 C66.1554382,65.072156 63.8544025,57.0983491 59.252262,48.9161687 Z" id="Combined-Shape" fill="url(#linearGradient-4)"></path>
                <polygon id="Path-16" fill="url(#linearGradient-5)" points="82 119.027436 94.2872942 112 104 130.097518 91.6114784 137"></polygon>
            </g>
            <g id="Group-31" filter="url(#filter-6)" transform="translate(219.000000, 58.000000)">
                <polygon id="Path-14" fill="url(#linearGradient-7)" points="233.346428 149.260066 256.521736 135.559471 256.521736 309.859026 233.346428 323.437331"></polygon>
                <polygon id="Path-14" fill="url(#linearGradient-8)" points="0.986392668 14.6179668 24.1617005 0.79508344 24.1617005 174.94888 0.986392668 188.649474"></polygon>
                <polygon id="Path-14" fill="url(#linearGradient-9)" points="111.325455 238.788896 122.734481 231.940864 24.1617005 174.94888 12.7526743 181.674623"></polygon>
                <polygon id="Path-14" fill="url(#linearGradient-10)" points="111 238.848032 122.409026 232 182.370327 309.814947 170.961301 316.54069"></polygon>
                <polygon id="Path-14" fill="url(#linearGradient-11)" points="183.253519 294.344955 194.662545 287.544394 194.662545 344.86887 183.253519 351.594613"></polygon>
                <polygon id="Path-14" fill="url(#linearGradient-8)" points="171.272156 273.534149 182.681182 266.733588 232.780993 295.829234 221.371967 302.554977"></polygon>
                <polygon id="Path-14" fill="url(#linearGradient-12)" points="0.986392668 14.6179668 24.1617005 0.79508344 256.521736 135.559471 233.346428 149.260066"></polygon>
                <path d="M1,188.71168 L1,14.5875337 L233.349643,149.254912 L233.349643,323.379059 L183.270179,294.353534 L183.270179,351.595412 L99.9212788,245.985449 L1,188.71168 Z M13,35.4124663 L13,181.796892 L111.186306,238.704629 L171.270179,316.445653 L171.270179,273.528602 L221.349643,302.554126 L221.349643,156.169701 L13,35.4124663 Z" id="Shape" fill="url(#linearGradient-8)" fill-rule="nonzero"></path>
            </g>
            <g id="Group-31" filter="url(#filter-13)">
                <polygon id="Path-14" fill="url(#linearGradient-7)" points="259.585311 166.68342 285.465908 151.383534 285.465908 346.02934 259.585311 361.192661"></polygon>
                <polygon id="Path-14" fill="url(#linearGradient-8)" points="0.101535781 16.3243443 25.9821325 0.887894736 25.9821325 195.370928 0.101535781 210.670814"></polygon>
                <polygon id="Path-14" fill="url(#linearGradient-9)" points="123.320644 266.663087 136.061464 259.015673 25.9821325 195.370928 13.2413133 202.881777"></polygon>
                <polygon id="Path-14" fill="url(#linearGradient-10)" points="122.957198 266.729125 135.698018 259.081712 202.658692 345.980115 189.917873 353.490965"></polygon>
                <polygon id="Path-14" fill="url(#linearGradient-11)" points="203.64498 328.704288 216.385799 321.109887 216.385799 385.125937 203.64498 392.636786"></polygon>
                <polygon id="Path-14" fill="url(#linearGradient-8)" points="190.265014 305.464205 203.005834 297.869805 258.953872 330.36183 246.213053 337.872679"></polygon>
                <polygon id="Path-14" fill="url(#linearGradient-14)" points="0.101535781 16.3243443 25.9821325 0.887894736 285.465908 151.383534 259.585311 166.68342"></polygon>
                <path d="M0.116731518,210.740281 L0.116731518,16.2903586 L259.588901,166.677665 L259.588901,361.127587 L203.663585,328.713869 L203.663585,392.637677 L110.585241,274.699704 L0.116731518,210.740281 Z M13.5175097,39.5462173 L13.5175097,203.018319 L123.165253,266.568983 L190.262807,353.384835 L190.262807,305.458011 L246.188123,337.871728 L246.188123,174.399627 L13.5175097,39.5462173 Z" id="Shape" fill="url(#linearGradient-8)" fill-rule="nonzero"></path>
            </g>
        </g>
    </g>
</svg>