<svg xmlns="http://www.w3.org/2000/svg" width="285px" height="348px" viewBox="0 0 285 348" version="1.1">
  <title>Listeners</title>
  <defs>
    <linearGradient x1="-2.67035231%" y1="68.9718881%" x2="91.5289454%" y2="34.0289028%" id="linearGradient-1">
      <stop stop-color="#FECE00" offset="0%"/>
      <stop stop-color="#FF9000" offset="100%"/>
    </linearGradient>
    <linearGradient x1="-2.67035231%" y1="68.9718881%" x2="91.1268802%" y2="60.1571697%" id="linearGradient-2">
      <stop stop-color="#FECE00" offset="0%"/>
      <stop stop-color="#FF9000" offset="100%"/>
    </linearGradient>
  </defs>
  <g stroke="none" stroke-width="1" fill="none" fill-rule="evenodd">
		<g transform="translate(0.000000, 197.000000)">
			<polyline id="Fill-183" fill="url(#linearGradient-1)" points="0.26 123.224 38.016 145.024 38.016 43.936 0.26 22.132 0.26 123.224"/>
			<polyline id="Fill-184" fill="url(#linearGradient-1)" points="38.016 145.024 75.772 123.224 75.772 22.132 38.016 43.936 38.016 145.024"/>
			<path d="M57.132 44.516C48.808 49.336 42.052 61.028 42.052 70.66 42.052 80.268 48.808 84.18 57.132 79.364 65.464 74.548 72.224 62.852 72.224 53.232 72.224 43.608 65.464 39.716 57.132 44.516" id="Fill-185" fill="#FFFFFF"/>
			<path d="M57.132 47.16C50.068 51.252 44.34 61.164 44.34 69.328 44.34 77.504 50.068 80.8 57.136 76.716 64.204 72.636 69.932 62.716 69.932 54.564 69.932 46.388 64.204 43.084 57.132 47.16" id="Fill-186" fill="url(#linearGradient-1)"/>
			<path d="M57.132 58.416C55.444 59.388 54.076 61.752 54.076 63.712 54.076 65.664 55.444 66.436 57.132 65.476 58.82 64.504 60.184 62.12 60.184 60.176 60.184 58.232 58.82 57.436 57.132 58.416" id="Fill-187" fill="#FFFFFF"/>
			<path d="M57.132 91.76C48.808 96.576 42.052 108.268 42.052 117.9 42.052 127.504 48.808 131.416 57.132 126.6 65.464 121.788 72.224 110.088 72.224 100.468 72.224 90.848 65.464 86.956 57.132 91.76" id="Fill-188" fill="#FFFFFF"/>
			<path d="M57.132 94.408C50.068 98.488 44.34 108.412 44.34 116.568 44.34 124.748 50.068 128.048 57.136 123.964 64.204 119.88 69.932 109.948 69.932 101.796 69.932 93.628 64.204 90.316 57.132 94.408" id="Fill-189" fill="url(#linearGradient-1)"/>
			<path d="M57.132 105.652C55.444 106.632 54.076 108.996 54.076 110.956 54.076 112.908 55.444 113.676 57.132 112.712 58.82 111.744 60.184 109.368 60.184 107.416 60.184 105.472 58.82 104.68 57.132 105.652" id="Fill-190" fill="#FFFFFF"/>
			<polyline fill="#F8F7F5" points="62.608 39.656 73.04 33.632 73.04 28.24 62.608 34.252 62.608 39.656"/>
			<polyline  fill="url(#linearGradient-1)" points="0.26 22.132 38.016 43.936 75.772 22.132 38.016 0.328 0.26 22.132"/>
		</g>
		<g transform="translate(105.000000, 0.000000)">
			<polyline id="Fill-59" fill="url(#linearGradient-2)" points="27.644 201.232 89.424 236.904 89.424 71.472 27.644 35.792 27.644 201.232"/>
			<polyline id="Fill-60" fill="url(#linearGradient-1)" points="89.424 236.904 151.224 201.232 151.224 35.792 89.424 71.472 89.424 236.904"/>
			<path d="M120.712 72.42C107.088 80.312 96.032 99.44 96.032 115.204 96.032 130.932 107.088 137.332 120.712 129.452 134.348 121.572 145.412 102.432 145.412 86.688 145.412 70.944 134.348 64.572 120.712 72.42" id="Fill-61" fill="#FFFFFF"/>
			<path d="M120.712 76.752C109.152 83.448 99.784 99.668 99.784 113.036 99.784 126.408 109.152 131.808 120.72 125.124 132.284 118.452 141.656 102.208 141.656 88.868 141.656 75.488 132.284 70.08 120.712 76.752" id="Fill-62" fill="url(#linearGradient-1)"/>
			<path d="M120.712 95.168C117.956 96.764 115.708 100.64 115.708 103.836 115.708 107.032 117.956 108.296 120.712 106.724 123.476 105.14 125.708 101.24 125.708 98.052 125.708 94.872 123.476 93.576 120.712 95.168" id="Fill-63" fill="#FFFFFF"/>
			<path d="M120.712 149.74C107.088 157.62 96.032 176.756 96.032 192.512 96.032 208.24 107.088 214.636 120.712 206.76 134.348 198.884 145.412 179.74 145.412 163.996 145.412 148.256 134.348 141.884 120.712 149.74" id="Fill-64" fill="#FFFFFF"/>
			<path d="M120.712 154.072C109.152 160.752 99.784 176.984 99.784 190.344 99.784 203.724 109.152 209.124 120.72 202.44 132.284 195.756 141.656 179.508 141.656 166.168 141.656 152.8 132.284 147.38 120.712 154.072" id="Fill-65" fill="url(#linearGradient-1)"/>
			<path d="M120.712 172.476C117.956 174.08 115.708 177.948 115.708 181.152 115.708 184.348 117.956 185.608 120.712 184.024 123.476 182.448 125.708 178.556 125.708 175.368 125.708 172.176 123.476 170.884 120.712 172.476" id="Fill-66" fill="#FFFFFF"/>
			<polyline fill="#F8F7F5" points="129.68 64.472 146.74 54.62 146.74 45.784 129.68 55.632 129.68 64.472"/>
			<polyline fill="url(#linearGradient-1)" points="27.644 35.792 89.424 71.472 151.224 35.792 89.424 0.104 27.644 35.792"/>
			<polyline fill="url(#linearGradient-1)" points="54.776 347.8 179.972 275.516 179.972 230.14 54.776 302.416 54.776 347.8"/>
			<polyline fill="url(#linearGradient-1)" points="0.148 271.22 54.776 302.416 179.972 230.14 125.352 198.944 0.148 271.22"/>
			<polyline fill="url(#linearGradient-1)" points="0.148 316.588 54.776 347.8 54.776 302.416 0.148 271.22 0.148 316.588"/>
			<path d="M77.276 294.424C68.636 299.42 61.632 311.56 61.632 321.536 61.632 331.516 68.636 335.568 77.276 330.568 85.916 325.576 92.916 313.452 92.916 303.472 92.916 293.48 85.916 289.436 77.276 294.424" id="Fill-173" fill="#FFFFFF"/>
			<path d="M77.276 297.168C69.932 301.416 64.004 311.696 64.004 320.164 64.004 328.644 69.932 332.068 77.276 327.828 84.596 323.592 90.556 313.3 90.556 304.844 90.556 296.368 84.596 292.936 77.276 297.168" id="Fill-174" fill="url(#linearGradient-1)"/>
			<path d="M77.276 308.848C75.52 309.86 74.1 312.308 74.1 314.34 74.1 316.364 75.52 317.164 77.276 316.176 79.032 315.168 80.436 312.688 80.436 310.664 80.436 308.644 79.032 307.824 77.276 308.848" id="Fill-175" fill="#FFFFFF"/>
			<path d="M158.592 247.46C149.964 252.464 142.964 264.588 142.964 274.584 142.964 284.552 149.964 288.608 158.592 283.624 167.248 278.624 174.248 266.488 174.248 256.504 174.248 246.528 167.248 242.488 158.592 247.46" id="Fill-176" fill="#FFFFFF"/>
			<path d="M158.592 250.216C151.272 254.464 145.324 264.744 145.324 273.212 145.324 281.676 151.272 285.108 158.604 280.872 165.928 276.636 171.88 266.348 171.88 257.876 171.88 249.416 165.928 245.972 158.592 250.216" id="Fill-177" fill="url(#linearGradient-1)"/>
			<path d="M158.592 261.884C156.856 262.9 155.42 265.352 155.42 267.376 155.42 269.408 156.856 270.212 158.592 269.216 160.352 268.204 161.764 265.728 161.764 263.712 161.764 261.704 160.352 260.88 158.592 261.884" id="Fill-178" fill="#FFFFFF"/>
			<path d="M118.044 270.884C109.4 275.884 102.4 288.016 102.4 297.996 102.4 307.968 109.4 312.02 118.044 307.032 126.684 302.04 133.692 289.904 133.692 279.916 133.692 269.94 126.684 265.9 118.044 270.884" id="Fill-179" fill="#FFFFFF"/>
			<path d="M118.044 273.628C110.708 277.876 104.772 288.152 104.772 296.624 104.772 305.096 110.708 308.528 118.052 304.296 125.372 300.052 131.312 289.764 131.312 281.304 131.312 272.824 125.372 269.396 118.044 273.628" id="Fill-180" fill="url(#linearGradient-1)"/>
			<path d="M118.044 285.288C116.296 286.308 114.868 288.76 114.868 290.8 114.868 292.828 116.296 293.62 118.044 292.632 119.796 291.62 121.216 289.14 121.216 287.124 121.216 285.108 119.796 284.284 118.044 285.288" id="Fill-181" fill="#FFFFFF"/>
		</g>
  </g>
</svg>
