<?xml version="1.0" encoding="UTF-8"?>
<svg width="451px" height="550px" viewBox="0 0 451 550" version="1.1" xmlns="http://www.w3.org/2000/svg" xmlns:xlink="http://www.w3.org/1999/xlink">
    <title>Musicians</title>
    <defs>
        <linearGradient x1="-2.67035231%" y1="68.9718881%" x2="91.1268802%" y2="60.1571697%" id="linearGradient-1">
            <stop stop-color="#FECE00" offset="0%"></stop>
            <stop stop-color="#FF9000" offset="100%"></stop>
        </linearGradient>
        <linearGradient x1="0%" y1="12.5738151%" x2="91.1268802%" y2="60.1571697%" id="linearGradient-2">
            <stop stop-color="#FECE00" offset="0%"></stop>
            <stop stop-color="#FF9000" offset="100%"></stop>
        </linearGradient>
        <linearGradient x1="96.7757223%" y1="43.8098059%" x2="39.5302713%" y2="36.5597447%" id="linearGradient-3">
            <stop stop-color="#FECE00" offset="0%"></stop>
            <stop stop-color="#FF9000" offset="100%"></stop>
        </linearGradient>
        <linearGradient x1="0%" y1="8.13301102%" x2="100%" y2="37.0307326%" id="linearGradient-4">
            <stop stop-color="#FECE00" offset="0%"></stop>
            <stop stop-color="#FF9000" offset="100%"></stop>
        </linearGradient>
        <linearGradient x1="47.5472801%" y1="103.402335%" x2="100%" y2="3.34439227%" id="linearGradient-5">
            <stop stop-color="#FECE00" offset="0%"></stop>
            <stop stop-color="#FF9000" offset="100%"></stop>
        </linearGradient>
        <linearGradient x1="51.2850768%" y1="81.3992593%" x2="5.24277446%" y2="47.4853989%" id="linearGradient-6">
            <stop stop-color="#FECE00" offset="0%"></stop>
            <stop stop-color="#FF9000" offset="100%"></stop>
        </linearGradient>
        <linearGradient x1="126.332769%" y1="-57.5312972%" x2="27.9727618%" y2="-57.5312953%" id="linearGradient-7">
            <stop stop-color="#FECE00" offset="0%"></stop>
            <stop stop-color="#FF9000" offset="100%"></stop>
        </linearGradient>
        <linearGradient x1="129.055149%" y1="179.586863%" x2="-39.7788183%" y2="50%" id="linearGradient-8">
            <stop stop-color="#FECE00" offset="0%"></stop>
            <stop stop-color="#FF9000" offset="100%"></stop>
        </linearGradient>
        <linearGradient x1="-2.67035231%" y1="68.9718881%" x2="91.5289454%" y2="34.0289028%" id="linearGradient-9">
            <stop stop-color="#FECE00" offset="0%"></stop>
            <stop stop-color="#FF9000" offset="100%"></stop>
        </linearGradient>
        <linearGradient x1="-158.982126%" y1="71.3372227%" x2="229.768486%" y2="3.39095598%" id="linearGradient-10">
            <stop stop-color="#FECE00" offset="0%"></stop>
            <stop stop-color="#FF9000" offset="100%"></stop>
        </linearGradient>
        <linearGradient x1="378.820839%" y1="0%" x2="18.5142046%" y2="69.4521653%" id="linearGradient-11">
            <stop stop-color="#FECE00" offset="0%"></stop>
            <stop stop-color="#FF9B00" offset="83.5020172%"></stop>
            <stop stop-color="#FF9000" offset="100%"></stop>
        </linearGradient>
        <linearGradient x1="12.193699%" y1="29.6052607%" x2="214.416588%" y2="261.938345%" id="linearGradient-12">
            <stop stop-color="#FECE00" offset="0%"></stop>
            <stop stop-color="#FF9000" offset="100%"></stop>
        </linearGradient>
        <linearGradient x1="50%" y1="0%" x2="47.5944424%" y2="93.0881427%" id="linearGradient-13">
            <stop stop-color="#D1D1D1" offset="0%"></stop>
            <stop stop-color="#EBEBEB" offset="100%"></stop>
        </linearGradient>
        <linearGradient x1="-2.67035231%" y1="68.9718881%" x2="9.08533112%" y2="123.835125%" id="linearGradient-14">
            <stop stop-color="#FECE00" offset="0%"></stop>
            <stop stop-color="#FF9000" offset="100%"></stop>
        </linearGradient>
    </defs>
    <g id="Page-1" stroke="none" stroke-width="1" fill="none" fill-rule="evenodd">
        <g id="Group-15">
            <path d="M275.616,496.712 C275.616,500.968 278.396,505.216 284.12,508.344 C295.248,514.676 313.204,514.676 324.412,508.344 C330.144,505.216 332.916,500.968 332.916,496.712 L332.916,493.252 L275.616,493.252 L275.616,496.712" id="Fill-70" fill="#2B2C2B"></path>
            <path d="M324.412,481.708 C313.204,475.028 295.248,475.028 284.12,481.708 C273.008,488.116 273.008,498.468 284.12,504.816 C295.248,511.316 313.204,511.316 324.412,504.816 C335.524,498.468 335.524,488.116 324.412,481.708" id="Fill-71" fill="url(#linearGradient-1)"></path>
            <path d="M301.4,492.416 C301.4,492.856 301.676,493.264 302.252,493.584 C303.368,494.224 305.164,494.224 306.284,493.584 C306.864,493.264 307.136,492.856 307.136,492.416 L307.136,2.144 L301.4,2.144 L301.4,492.416" id="Fill-72" fill="url(#linearGradient-1)"></path>
            <path d="M302.252,0.976 C301.136,1.62 301.136,2.664 302.252,3.288 C303.368,3.952 305.164,3.952 306.284,3.288 C307.404,2.664 307.404,1.62 306.284,0.976 C305.164,0.316 303.368,0.316 302.252,0.976" id="Fill-73" fill="#4C4C4E"></path>
            <path d="M198.288,159.5 C197.888,159.672 197.624,160.092 197.572,160.748 C197.428,162.024 198.144,163.672 199.184,164.44 C199.7,164.84 200.192,164.928 200.592,164.752 L450.056,55.036 L447.744,49.784 L198.288,159.5" id="Fill-74" fill="url(#linearGradient-1)"></path>
            <path d="M449.156,50.096 C448.124,49.34 447.168,49.756 447.044,51.028 C446.888,52.316 447.604,53.956 448.672,54.724 C449.696,55.488 450.652,55.072 450.788,53.792 C450.932,52.496 450.216,50.844 449.156,50.096" id="Fill-75" fill="#4C4C4E"></path>
            <path d="M169.364,180.724 C163.732,183.992 156.532,182.048 153.296,176.428 C150.028,170.796 151.96,163.596 157.588,160.344 C163.224,157.092 170.424,159.024 173.692,164.64 C176.924,170.292 175,177.488 169.364,180.724" id="Fill-76" fill="url(#linearGradient-1)"></path>
            <path d="M173.1,175.108 C169.872,175.072 165.916,171.228 164.34,166.588 C163.072,162.884 163.66,159.736 165.592,158.604 L165.572,158.604 L168.7,156.796 L169.908,158.904 C172.444,160.224 174.912,163.212 176.108,166.708 C176.592,168.184 176.82,169.596 176.772,170.796 L177.984,172.884 L174.856,174.672 C174.356,174.952 173.78,175.124 173.1,175.108" id="Fill-77" fill="#B6B8B5"></path>
            <path d="M176.232,173.32 C172.98,173.264 169.048,169.476 167.444,164.78 C165.868,160.1 167.192,156.344 170.444,156.36 C173.708,156.416 177.624,160.224 179.224,164.9 C180.824,169.596 179.464,173.352 176.232,173.32" id="Fill-78" fill="#9FA2A1"></path>
            <path d="M178.04,172.968 C177.556,173.248 176.944,173.42 176.288,173.42 C172.98,173.368 168.996,169.504 167.4,164.78 C166.108,161.004 166.72,157.84 168.652,156.708 L214.084,134.296 L220.16,144.82 L178.06,172.968 L178.04,172.968" id="Fill-79" fill="url(#linearGradient-1)"></path>
            <path d="M219.024,145.092 C216.908,145.076 214.336,142.572 213.292,139.512 C212.228,136.452 213.108,134 215.24,134.016 C217.376,134.016 219.948,136.54 220.976,139.6 C222.036,142.664 221.148,145.112 219.024,145.092" id="Fill-80" fill="#131312"></path>
            <path d="M218.308,140.488 C217.604,140.712 216.872,140.332 216.648,139.616 C216.432,138.92 216.816,138.172 217.516,137.948 C224.78,135.668 226.544,127.46 226.556,127.356 C226.672,126.748 227.236,126.316 227.856,126.316 L228.12,126.316 C228.82,126.472 229.316,127.184 229.164,127.896 C229.076,128.312 227.064,137.704 218.308,140.488" id="Fill-81" fill="#131312"></path>
            <path d="M196.372,153.252 C195.832,153.252 195.34,153.372 194.944,153.616 L192.248,155.164 L199.848,168.328 L202.54,166.78 C204.124,165.856 204.608,163.284 203.572,160.24 C202.26,156.416 199.052,153.284 196.372,153.252" id="Fill-82" fill="#131B25"></path>
            <path d="M193.672,154.796 C191.012,154.78 189.916,157.856 191.22,161.7 C192.528,165.524 195.744,168.656 198.42,168.692 C201.08,168.708 202.18,165.632 200.872,161.804 C199.572,157.964 196.336,154.832 193.672,154.796" id="Fill-83" fill="#1E2E3D"></path>
            <path d="M194.076,157.164 C193.692,157.164 193.36,157.248 193.084,157.408 L191.22,158.484 L196.452,167.56 L198.316,166.48 C199.412,165.856 199.744,164.08 199.032,161.98 C198.12,159.336 195.916,157.18 194.076,157.164" id="Fill-84" fill="#AA5D2E"></path>
            <path d="M192.212,158.24 C190.368,158.224 189.62,160.344 190.52,162.988 C191.416,165.632 193.636,167.788 195.484,167.804 C197.328,167.82 198.076,165.7 197.168,163.06 C196.264,160.416 194.06,158.256 192.212,158.24" id="Fill-85" fill="#E77B2B"></path>
            <path d="M300.656,109.332 C300.116,109.332 299.632,109.452 299.232,109.696 L299.228,109.696 L296.532,111.244 L304.124,124.408 L306.82,122.86 C308.408,121.936 308.896,119.364 307.852,116.324 C306.544,112.496 303.324,109.364 300.656,109.332" id="Fill-86" fill="#131B25"></path>
            <path d="M297.964,110.88 C295.292,110.86 294.2,113.936 295.516,117.78 C296.816,121.608 300.036,124.74 302.7,124.772 C305.368,124.792 306.46,121.712 305.152,117.888 C303.848,114.044 300.624,110.912 297.964,110.88" id="Fill-87" fill="#1E2E3D"></path>
            <path d="M298.352,113.244 C297.98,113.244 297.652,113.332 297.372,113.488 L295.516,114.564 L300.748,123.64 L302.6,122.564 C303.692,121.936 304.024,120.164 303.308,118.06 C302.412,115.416 300.196,113.26 298.352,113.244" id="Fill-88" fill="#AA5D2E"></path>
            <path d="M296.492,114.32 C294.664,114.304 293.904,116.424 294.808,119.072 C295.708,121.712 297.92,123.868 299.764,123.884 C301.604,123.904 302.356,121.78 301.444,119.14 C300.556,116.496 298.34,114.34 296.492,114.32" id="Fill-89" fill="#E77B2B"></path>
            <polyline id="Fill-92" fill="url(#linearGradient-1)" points="115.868 420.412 106.444 425.856 97.024 420.412 97.024 129.788 115.868 129.788 115.868 420.412"></polyline>
            <polyline id="Fill-93" fill="url(#linearGradient-2)" points="115.868 420.412 106.444 425.856 106.444 135.248 115.868 129.788 115.868 420.412"></polyline>
            <polyline id="Fill-94" fill="url(#linearGradient-1)" points="115.868 129.788 106.444 135.248 97.024 129.788 106.444 124.36 115.868 129.788"></polyline>
            <polyline id="Fill-95" fill="url(#linearGradient-3)" points="104.376 141.216 104.376 152.104 7.968 207.776 3.892 194.544 100.32 138.888 104.376 141.216"></polyline>
            <polyline id="Fill-96" fill="url(#linearGradient-1)" points="104.376 141.216 7.968 196.892 3.892 194.544 100.32 138.888 104.376 141.216"></polyline>
            <polyline id="Fill-97" fill="#66462C" points="7.968 207.776 3.916 205.432 3.892 194.544 7.968 196.892 7.968 207.776"></polyline>
            <polyline id="Fill-98" fill="url(#linearGradient-3)" points="104.376 161.14 104.376 172.012 7.968 227.7 3.892 214.5 100.32 158.812 104.376 161.14"></polyline>
            <polyline id="Fill-99" fill="url(#linearGradient-1)" points="104.376 161.14 7.968 216.796 3.892 214.5 100.32 158.812 104.376 161.14"></polyline>
            <polyline id="Fill-100" fill="#66462C" points="7.968 227.7 3.916 225.356 3.892 214.5 7.968 216.796 7.968 227.7"></polyline>
            <polyline id="Fill-101" fill="url(#linearGradient-3)" points="104.376 181.084 104.376 191.956 7.968 247.644 3.892 234.424 100.32 178.752 104.376 181.084"></polyline>
            <polyline id="Fill-102" fill="url(#linearGradient-1)" points="104.376 181.084 7.968 236.752 3.892 234.424 100.32 178.752 104.376 181.084"></polyline>
            <polyline id="Fill-103" fill="#66462C" points="7.968 247.644 3.916 245.276 3.892 234.424 7.968 236.752 7.968 247.644"></polyline>
            <polyline id="Fill-104" fill="url(#linearGradient-3)" points="104.376 201.004 104.376 211.896 7.968 267.58 3.892 254.348 100.32 198.692 104.376 201.004"></polyline>
            <polyline id="Fill-105" fill="url(#linearGradient-1)" points="104.376 201.004 7.968 256.676 3.892 254.348 100.32 198.692 104.376 201.004"></polyline>
            <polyline id="Fill-106" fill="#66462C" points="7.968 267.58 3.916 265.236 3.892 254.348 7.968 256.676 7.968 267.58"></polyline>
            <polyline id="Fill-107" fill="url(#linearGradient-1)" points="19.504 475.988 10.052 481.416 0.628 475.988 0.628 185.344 19.504 185.344 19.504 475.988"></polyline>
            <polyline id="Fill-108" fill="url(#linearGradient-1)" points="19.504 475.988 10.052 481.416 10.052 190.772 19.504 185.344 19.504 475.988"></polyline>
            <polyline id="Fill-109" fill="url(#linearGradient-1)" points="19.504 185.344 10.052 190.772 0.628 185.344 10.052 179.884 19.504 185.344"></polyline>
            <polyline id="Fill-110" fill="url(#linearGradient-1)" points="206.488 473.2 197.056 478.644 187.652 473.2 187.652 361.872 206.488 361.872 206.488 473.2"></polyline>
            <polyline id="Fill-111" fill="url(#linearGradient-4)" points="206.488 473.2 197.056 478.644 197.056 367.3 206.488 361.872 206.488 473.2"></polyline>
            <polyline id="Fill-112" fill="#66462C" points="206.488 361.872 197.056 367.3 187.652 361.872 197.056 356.424 206.488 361.872"></polyline>
            <polyline id="Fill-113" fill="#50351F" points="110.156 528.808 100.744 534.252 91.32 528.808 91.32 417.464 110.156 417.464 110.156 528.808"></polyline>
            <polyline id="Fill-114" fill="#2D2119" points="110.156 528.808 100.744 534.252 100.744 422.904 110.156 417.464 110.156 528.808"></polyline>
            <polyline id="Fill-115" fill="#66462C" points="110.156 417.464 100.744 422.904 91.32 417.464 100.744 412.016 110.156 417.464"></polyline>
            <polyline id="Fill-116" fill="url(#linearGradient-5)" points="206.488 361.872 100.68 422.972 10.052 370.512 10.052 355.508 206.488 346.864 206.488 361.872"></polyline>
            <polyline id="Fill-117" fill="url(#linearGradient-6)" points="206.488 346.864 100.68 407.952 10.052 355.508 115.868 294.392 206.488 346.864"></polyline>
            <polyline id="Fill-118" fill="url(#linearGradient-7)" points="182.096 349.392 98.376 397.7 26.668 356.212 26.668 344.34 182.096 337.488 182.096 349.392"></polyline>
            <polyline id="Fill-119" fill="url(#linearGradient-1)" points="182.096 337.488 98.376 385.828 26.668 344.34 110.392 295.964 182.096 337.488"></polyline>
            <path d="M100.68,534.284 L94.16,530.488 L94.192,530.468 L100.74,534.252 L100.68,534.284 M105.028,531.776 L110.156,528.808 L110.156,521.336 L150.512,498.244 L156.824,501.872 L105.028,531.776" id="Fill-121" fill="#6C4725"></path>
            <polyline id="Fill-122" fill="#34261A" points="100.744 534.252 100.74 534.252 94.192 530.468 100.744 526.72 100.744 534.252"></polyline>
            <polyline id="Fill-123" fill="#1F1813" points="100.744 534.252 100.744 526.72 110.156 521.336 110.156 528.808 105.028 531.776 100.744 534.252"></polyline>
            <path d="M152.276,264.74 C152.304,265.46 152.608,265.976 153.072,266.204 L153.068,266.212 L153.936,266.716 L154.224,266.224 L154.408,266.18 C155.832,265.6 157.156,263.76 157.392,262.06 C157.444,261.624 157.416,261.236 157.336,260.916 L157.524,260.492 L156.664,259.992 L156.656,259.996 C156.268,259.788 155.784,259.78 155.228,260.004 C154,260.5 152.88,261.952 152.428,263.432 L149.632,264.564 L149.476,265.844 L150.392,266.376 L152.276,264.74" id="Fill-124" fill="url(#linearGradient-8)"></path>
            <path d="M156.152,260.544 C154.92,261.036 153.796,262.484 153.364,263.968 L150.56,265.096 L150.392,266.376 L153.188,265.26 C153.264,266.54 154.096,267.212 155.32,266.716 C156.752,266.132 158.084,264.288 158.304,262.588 C158.548,260.9 157.58,259.976 156.152,260.544" id="Fill-125" fill="url(#linearGradient-9)"></path>
            <path d="M108.688,533.608 C115.016,531 120,528.04 121.228,527.264 C125.34,525.08 169.992,500.18 170.416,458.06 C170.692,428.66 153.112,428.296 153.224,417.12 C153.252,413.88 154.476,410.044 155.784,405.824 L158.232,407.236 L170.46,385.196 L151.112,374.04 C139.456,367.328 121.448,379.136 121.448,379.136 C121.448,379.136 92.324,393.544 84.116,427.132 C81.796,442.524 89.468,445.604 89.516,453.764 C89.588,464.848 72.004,485.452 72.196,514.576 C72.272,526.304 75.864,532.632 81.072,535.632 L100.916,547.088 L108.688,533.608" id="Fill-126" fill="url(#linearGradient-9)"></path>
            <path d="M171.584,429.704 C171.656,421.464 179.18,409.136 176.9,396.404 C168.784,372.216 141.452,392.484 141.452,392.484 C141.452,392.484 113.652,405.744 105.448,439.324 C103.12,454.716 111.096,458.124 111.152,466.284 C111.236,477.372 93.416,495.744 93.6,524.86 C93.904,566.58 136.924,539 141.028,536.48 C145.116,534.28 188,511.7 188.416,469.58 C188.7,440.18 171.476,440.892 171.584,429.704" id="Fill-127" fill="url(#linearGradient-9)"></path>
            <path d="M162.416,383.332 C152.076,383.332 141.14,390.5 141.14,390.5 C141.14,390.5 112.012,404.912 103.808,438.496 C101.48,453.888 109.152,456.972 109.208,465.136 C109.284,476.224 91.692,496.816 91.876,525.928 C92.004,543.944 100.404,549.244 110.236,549.244 C123.176,549.244 138.596,540.068 140.924,538.636 C145.016,536.436 189.672,511.544 190.088,469.42 C190.372,440.024 172.808,439.672 172.916,428.484 C172.988,420.248 180.688,408.312 178.404,395.576 C175.256,386.2 168.952,383.332 162.416,383.332 Z M162.416,386.876 C168.7,386.876 172.696,389.924 174.956,396.456 C176.108,403.324 173.94,410.248 172.024,416.36 C170.676,420.668 169.404,424.736 169.368,428.448 C169.316,434.144 172.692,437.732 175.956,441.2 C180.744,446.292 186.708,452.628 186.544,469.388 C186.152,509.136 144.044,532.932 139.248,535.516 L139.156,535.568 L139.072,535.616 C137.392,536.648 122.312,545.696 110.236,545.696 C103.94,545.696 95.552,543.644 95.42,525.912 C95.312,508.692 101.664,494.668 106.768,483.4 C110.132,475.98 112.784,470.12 112.752,465.112 C112.728,461.152 111.304,458.224 109.928,455.388 C108.04,451.472 106.076,447.42 107.288,439.18 C115.036,407.796 142.44,393.816 142.712,393.68 L142.908,393.584 L143.084,393.464 C143.188,393.4 153.24,386.876 162.416,386.876 L162.416,386.876 Z" id="Fill-128" fill="#FF7A00"></path>
            <path d="M149.984,285.716 C150.012,286.448 150.3,286.956 150.764,287.192 L150.764,287.2 L151.632,287.7 L151.912,287.216 L152.116,287.164 C153.528,286.596 154.86,284.748 155.084,283.04 C155.14,282.616 155.128,282.232 155.032,281.896 L155.228,281.48 L154.36,280.976 L154.352,280.996 C153.964,280.788 153.492,280.772 152.924,281 C151.708,281.488 150.576,282.944 150.136,284.42 L147.336,285.544 L147.168,286.832 L148.096,287.368 L149.984,285.716" id="Fill-129" fill="url(#linearGradient-8)"></path>
            <path d="M153.856,281.532 C152.612,282.016 151.492,283.472 151.064,284.956 L148.26,286.072 L148.096,287.368 L150.9,286.244 C150.96,287.532 151.788,288.192 153.036,287.696 C154.448,287.12 155.784,285.276 156.02,283.572 C156.232,281.884 155.264,280.964 153.856,281.532" id="Fill-130" fill="url(#linearGradient-9)"></path>
            <path d="M140.908,423.3 C131.896,428.592 124.644,440.924 124.716,450.872 C124.776,460.816 132.144,464.584 141.152,459.304 C150.156,454.024 157.408,441.68 157.336,431.736 C157.272,421.788 149.912,418.02 140.908,423.3" id="Fill-131" fill="#FF7A00"></path>
            <polyline id="Fill-132" fill="url(#linearGradient-10)" points="130.26 438.812 131.132 439.324 146.376 425.176 143.584 387.452 144.556 293.24 130.38 301.392 125.26 398.028 128.204 399.612 130.26 438.812"></polyline>
            <polyline id="Fill-133" fill="url(#linearGradient-9)" points="130.38 301.392 134.2 303.588 133.928 301.36 130.112 299.16 130.38 301.392"></polyline>
            <polyline id="Fill-134" fill="url(#linearGradient-11)" points="131.132 439.324 151.036 427.868 148.368 295.436 134.2 303.588 131.132 439.324"></polyline>
            <polyline id="Fill-135" fill="#FF7A00" points="134.456 427.936 135.044 428.276 148.376 419.728 147.764 419.368 134.44 427.028 134.456 427.936"></polyline>
            <polyline id="Fill-136" fill="url(#linearGradient-10)" points="135.044 428.276 148.376 420.616 148.376 419.728 135.044 427.384 135.044 428.276"></polyline>
            <polyline id="Fill-137" fill="#FF7A00" points="134.492 404.1 135.084 404.448 148.416 395.896 147.808 395.54 134.484 403.204 134.492 404.1"></polyline>
            <polyline id="Fill-138" fill="url(#linearGradient-10)" points="135.084 404.448 148.412 396.78 148.416 395.896 135.092 403.556 135.084 404.448"></polyline>
            <polyline id="Fill-139" fill="#FF7A00" points="134.52 380.284 135.112 380.62 148.444 372.068 147.84 371.728 134.504 379.38 134.52 380.284"></polyline>
            <polyline id="Fill-140" fill="url(#linearGradient-10)" points="135.112 380.62 148.436 372.948 148.444 372.068 135.12 379.732 135.112 380.62"></polyline>
            <polyline id="Fill-141" fill="#FF7A00" points="134.552 356.448 135.148 356.796 148.476 348.24 147.876 347.884 134.552 355.548 134.552 356.448"></polyline>
            <polyline id="Fill-142" fill="url(#linearGradient-12)" points="135.148 356.796 148.476 349.128 148.476 348.24 135.16 355.9 135.148 356.796"></polyline>
            <polyline id="Fill-143" fill="#FF7A00" points="134.62 308.8 135.22 309.148 148.548 300.588 147.952 300.244 134.62 307.904 134.62 308.8"></polyline>
            <polyline id="Fill-144" fill="url(#linearGradient-12)" points="135.22 309.148 148.54 301.472 148.548 300.588 135.224 308.248 135.22 309.148"></polyline>
            <path d="M131.904,454.888 C134.004,455.772 136.832,455.424 139.908,453.624 C146.464,449.784 151.724,440.832 151.688,433.624 C151.652,430.5 150.636,428.196 148.956,426.924 C151.328,427.936 152.852,430.5 152.864,434.308 C152.916,441.528 147.656,450.464 141.12,454.328 C137.412,456.496 134.096,456.56 131.904,454.888" id="Fill-145" fill="url(#linearGradient-13)"></path>
            <path d="M131.904,454.888 C130.228,453.604 129.204,451.304 129.172,448.192 C129.144,440.976 134.396,432.024 140.944,428.188 C144.02,426.376 146.844,426.032 148.956,426.924 C150.636,428.196 151.652,430.5 151.688,433.624 C151.724,440.832 146.464,449.784 139.908,453.624 C136.832,455.424 134.004,455.772 131.904,454.888" id="Fill-146" fill="#FFFFFF"></path>
            <polyline id="Fill-147" fill="#FF7A00" points="124.58 514.252 157.372 495.388 157.38 487.2 124.596 506.072 124.58 514.252"></polyline>
            <path d="M151.08,275.512 C151.12,276.252 151.412,276.772 151.884,277 L151.876,277.004 L152.74,277.504 L153.024,277.032 L153.224,276.976 C154.644,276.392 155.972,274.556 156.2,272.856 C156.26,272.428 156.236,272.044 156.152,271.716 L156.34,271.288 L155.468,270.788 L155.468,270.796 C155.084,270.596 154.6,270.584 154.04,270.804 C152.808,271.296 151.7,272.752 151.256,274.236 L148.464,275.36 L148.284,276.644 L149.208,277.168 L151.08,275.512" id="Fill-148" fill="url(#linearGradient-8)"></path>
            <path d="M154.96,271.336 C153.736,271.832 152.62,273.288 152.184,274.776 L149.38,275.892 L149.208,277.168 L152.004,276.052 C152.068,277.332 152.908,278 154.144,277.504 C155.564,276.928 156.896,275.088 157.128,273.392 C157.344,271.688 156.396,270.768 154.96,271.336" id="Fill-149" fill="url(#linearGradient-9)"></path>
            <path d="M132.78,289.556 L131.928,273.252 C131.876,272 132.732,270.372 133.86,269.64 L133.896,269.624 C135.016,268.892 135.984,269.336 136.048,270.592 L136.888,286.904 C136.96,288.168 136.088,289.784 134.96,290.504 L134.924,290.528 C133.804,291.256 132.844,290.82 132.78,289.556 Z M143.724,263.976 L143.756,263.948 C144.892,263.376 145.744,264 145.676,265.34 L144.788,282.644 C144.728,283.98 143.756,285.528 142.628,286.104 L142.58,286.116 C141.452,286.68 140.592,286.068 140.668,284.728 L141.556,267.428 C141.632,266.084 142.592,264.544 143.724,263.976 Z M147.56,291.248 L149.24,262.336 C149.336,261.428 149.3,260.628 149.164,259.908 L150.04,258.396 L146.008,256.072 C145.168,255.588 144.1,255.488 142.856,255.84 L137.532,257.412 L132.18,261.984 C128.784,264.916 126.564,269.944 127.02,273.68 L130.112,299.16 L133.928,301.36 L147.56,291.248 L147.56,291.248 Z" id="Fill-150" fill="url(#linearGradient-14)"></path>
            <path d="M148.232,266.82 L147.352,284.12 C147.28,285.456 146.312,287 145.176,287.58 L145.14,287.592 C144.02,288.168 143.16,287.548 143.224,286.208 L144.116,268.904 C144.188,267.556 145.148,266.024 146.284,265.452 L146.316,265.424 C147.452,264.852 148.296,265.476 148.232,266.82 Z M139.444,288.384 C139.52,289.648 138.644,291.256 137.524,291.984 L137.48,292.008 C136.352,292.736 135.4,292.296 135.32,291.024 L134.496,274.736 C134.428,273.468 135.284,271.848 136.42,271.12 L136.448,271.104 C137.58,270.372 138.54,270.816 138.608,272.068 L139.444,288.384 Z M146.672,258.04 L141.328,259.608 L135.992,264.188 C132.6,267.12 130.372,272.144 130.836,275.884 L133.928,301.36 L148.628,292.9 L151.804,263.824 C152.26,259.556 150.06,257.068 146.672,258.04 L146.672,258.04 Z" id="Fill-151" fill="url(#linearGradient-9)"></path>
            <path d="M123.396,284.28 C123.728,284.18 124.092,283.996 124.472,283.704 C125.7,282.756 127.008,281.3 127.072,279.96 L130.092,277.084 L129.172,276.544 L126.616,278.52 L125.764,278.044 C125.2,277.76 124.424,277.896 123.568,278.54 C122.16,279.632 121.212,281.672 121.46,283.096 C121.56,283.656 121.8,284.02 122.176,284.216 L123.12,284.76 L123.396,284.28" id="Fill-152" fill="url(#linearGradient-8)"></path>
            <path d="M127.316,279.224 C126.84,278.26 125.728,278.128 124.5,279.076 C123.084,280.168 122.14,282.208 122.392,283.628 C122.636,285.06 123.988,285.336 125.396,284.236 C126.616,283.292 127.448,281.664 127.5,280.3 L130.28,278.14 L130.092,277.084 L127.316,279.224" id="Fill-153" fill="url(#linearGradient-9)"></path>
            <path d="M124.52,293.712 C124.868,293.616 125.244,293.424 125.608,293.14 C126.832,292.196 128.14,290.74 128.2,289.376 L131.232,286.5 L130.308,285.968 L127.744,287.956 L126.904,287.472 C126.32,287.192 125.556,287.324 124.704,287.976 C123.288,289.072 122.348,291.104 122.588,292.532 C122.688,293.084 122.948,293.448 123.308,293.652 L124.248,294.188 L124.52,293.712" id="Fill-154" fill="url(#linearGradient-8)"></path>
            <path d="M128.444,288.652 C127.996,287.684 126.856,287.56 125.62,288.508 C124.204,289.6 123.272,291.64 123.524,293.072 C123.76,294.496 125.116,294.768 126.524,293.668 C127.752,292.724 128.58,291.092 128.632,289.74 L131.428,287.584 L131.232,286.5 L128.444,288.652" id="Fill-155" fill="url(#linearGradient-9)"></path>
            <polyline id="Fill-156" fill="#FF7A00" points="134.584 332.632 135.192 332.984 148.512 324.416 147.916 324.072 134.584 331.728 134.584 332.632"></polyline>
            <polyline id="Fill-157" fill="url(#linearGradient-12)" points="135.192 332.984 148.512 325.296 148.512 324.416 135.192 332.076 135.192 332.984"></polyline>
            <polyline id="Fill-158" fill="url(#linearGradient-9)" points="134.2 303.588 148.368 295.436 148.628 292.9 133.928 301.36 134.2 303.588"></polyline>
            <polyline id="Fill-159" fill="url(#linearGradient-9)" points="129.036 509.028 131.596 510.504 155.5 494.168 152.924 492.688 129.044 506.44 129.036 509.028"></polyline>
            <polyline id="Fill-160" fill="#FF7A00" points="131.596 510.504 155.5 496.752 155.5 494.168 131.596 507.916 131.596 510.504"></polyline>
            <polyline id="Fill-161" fill="#FFFFFE" points="135.744 503.752 136.276 503.448 135.552 302.816 135.004 303.112 135.744 503.752"></polyline>
            <polyline id="Fill-162" fill="#FFFFFE" points="138.14 502.372 138.672 502.064 137.924 301.44 137.392 301.74 138.14 502.372"></polyline>
            <polyline id="Fill-163" fill="#FFFFFE" points="140.54 501 141.072 500.704 140.328 300.044 139.776 300.364 140.54 501"></polyline>
            <polyline id="Fill-164" fill="#FFFFFE" points="142.916 499.62 143.46 499.332 142.712 298.68 142.18 298.992 142.916 499.62"></polyline>
            <polyline id="Fill-165" fill="#FFFFFE" points="145.308 498.248 145.84 497.944 145.092 297.304 144.576 297.616 145.308 498.248"></polyline>
            <polyline id="Fill-166" fill="#FFFFFE" points="147.712 496.872 148.236 496.58 147.504 295.928 146.956 296.244 147.712 496.872"></polyline>
            <path d="M125.612,302.6 C125.96,302.504 126.336,302.312 126.704,302.02 C127.924,301.08 129.244,299.62 129.296,298.272 L132.332,295.392 L131.404,294.856 L128.836,296.84 L128.004,296.36 C127.428,296.076 126.632,296.212 125.808,296.868 C124.392,297.952 123.448,299.996 123.684,301.412 C123.78,301.976 124.06,302.332 124.404,302.54 L125.34,303.084 L125.612,302.6" id="Fill-167" fill="url(#linearGradient-8)"></path>
            <path d="M129.54,297.544 C129.084,296.58 127.948,296.448 126.744,297.404 C125.304,298.484 124.364,300.528 124.616,301.948 C124.856,303.38 126.212,303.652 127.628,302.56 C128.848,301.608 129.688,299.976 129.728,298.624 L132.516,296.472 L132.332,295.392 L129.54,297.544" id="Fill-168" fill="url(#linearGradient-9)"></path>
        </g>
    </g>
</svg>