<?xml version="1.0" encoding="UTF-8"?>
<svg version="1.1" viewBox="0 0 234 50" xmlns="http://www.w3.org/2000/svg">
<title>Group</title>
<desc>Created with Sketch.</desc>
<g transform="translate(-905 -1109)" fill="none" fill-rule="evenodd">
<g transform="translate(0 740)">
<g transform="translate(905 369)">
<rect y="45" width="9" height="5" fill="#fff" opacity=".1"/>
<rect x="14" y="34" width="9" height="16" fill="#fff" opacity=".1"/>
<rect x="29" y="32" width="9" height="18" fill="#fff" opacity=".1"/>
<rect x="43" y="24" width="9" height="26" fill="#fff" opacity=".1"/>
<rect x="57" y="29" width="9" height="21" fill="#fff" opacity=".1"/>
<rect x="71" y="34" width="9" height="16" fill="#fff" opacity=".1"/>
<rect x="85" y="32" width="9" height="18" fill="#fff" opacity=".1"/>
<rect x="99" y="24" width="9" height="26" fill="#fff" opacity=".1"/>
<rect x="113" y="32" width="9" height="18" fill="#fff" opacity=".1"/>
<rect x="127" y="34" width="9" height="16" fill="#fff" opacity=".1"/>
<rect x="141" y="32" width="9" height="18" fill="#fff" opacity=".1"/>
<rect x="155" y="24" width="9" height="26" fill="#fff" opacity=".1"/>
<rect x="169" y="29" width="9" height="21" fill="#fff" opacity=".1"/>
<rect x="183" y="34" width="9" height="16" fill="#fff" opacity=".1"/>
<rect x="197" y="32" width="9" height="18" fill="#fff" opacity=".1"/>
<rect x="211" y="24" width="9" height="26" fill="#fff" opacity=".1"/>
<rect x="225" y="42" width="9" height="8" fill="#fff" opacity=".1"/>
<path d="m23.197 37h-16.197v-37h14.398c2.5055 0 4.6669 0.29995 6.4843 0.89986 1.8174 0.59991 3.1671 1.4115 4.0494 2.4349 1.6939 1.9056 2.5408 4.0582 2.5408 6.4578 0 2.8937-0.91749 5.0462-2.7525 6.4578-0.67048 0.49404-1.1292 0.80281-1.3763 0.92632-0.24702 0.12351-0.68812 0.32642-1.3233 0.60873 2.2938 0.49404 4.1199 1.5262 5.4785 3.0966 1.3586 1.5703 2.0379 3.52 2.0379 5.8491 0 2.5761-0.8822 4.8522-2.6466 6.8283-2.082 2.2938-5.6461 3.4406-10.692 3.4406zm-9.9514-21.649h7.9399c4.517 0 6.7754-1.535 6.7754-4.6052 0-1.7644-0.54697-3.0348-1.6409-3.8112-1.0939-0.77635-2.7878-1.1645-5.0815-1.1645h-7.9928v9.5808zm0 15.88h9.7926c2.2938 0 4.0494-0.3617 5.2668-1.0851 1.2175-0.72342 1.8262-2.0908 1.8262-4.1023 0-3.2818-2.629-4.9227-7.887-4.9227h-8.9986v10.11zm31.124-31.23h6.2461v37h-6.2461v-37zm30.489 5.7167v31.283h-6.2461v-31.283h-11.222v-5.7167h28.69v5.7167h-11.222zm31.971 0v31.283h-6.2461v-31.283h-11.222v-5.7167h28.69v5.7167h-11.222zm47.534 6.299c0 6.1049-2.6643 9.9514-7.9928 11.539l9.6867 13.445h-7.9399l-8.8398-12.439h-8.2046v12.439h-6.2461v-37h13.763c5.6462 0 9.6867 0.95278 12.122 2.8584 2.4349 1.9056 3.6524 4.958 3.6524 9.1574zm-15.509 6.8813c3.5289 0 5.9285-0.54697 7.1989-1.6409 1.2704-1.0939 1.9056-2.8495 1.9056-5.2668 0-2.4173-0.65283-4.0758-1.9585-4.9757-1.3057-0.89986-3.6347-1.3498-6.9871-1.3498h-7.9399v13.233h7.7811zm50.498-18.897v5.8755h-19.744v9.7926h17.732v5.5579h-17.732v9.8984h20.379v5.8755h-26.625v-37h25.99zm30.542 37l-9.1044-13.921h-0.26466l-9.1044 13.921h-7.7811l12.704-19.003-11.804-17.997h7.7282l8.2575 12.492h0.26466l8.2575-12.492h7.7282l-11.804 17.997 12.704 19.003h-7.7811z" fill="#7D7B7F"/>
</g>
</g>
</g>
</svg>
