<?xml version="1.0" encoding="UTF-8"?>
<svg width="24px" height="24px" viewBox="0 0 24 24" version="1.1" xmlns="http://www.w3.org/2000/svg" xmlns:xlink="http://www.w3.org/1999/xlink">
    <!-- Generator: Sketch 46.2 (44496) - http://www.bohemiancoding.com/sketch -->
    <title>Shape</title>
    <desc>Created with Sketch.</desc>
    <defs></defs>
    <g id="Page-1" stroke="none" stroke-width="1" fill="none" fill-rule="evenodd">
        <path d="M23.25,0 L0.75,0 C0.335786438,-2.53632657e-17 5.07265313e-17,0.335786438 0,0.75 L0,23.25 C5.07265313e-17,23.6642136 0.335786438,24 0.75,24 L23.25,24 C23.6642136,24 24,23.6642136 24,23.25 L24,0.75 C24,0.335786438 23.6642136,2.53632657e-17 23.25,0 Z M19.938375,5.686125 L18.651375,6.92025 C18.5402726,7.00466852 18.4852295,7.14379335 18.5085,7.281375 L18.5085,16.35 C18.4852295,16.4875816 18.5402726,16.6267065 18.651375,16.711125 L19.908375,17.94525 L19.908375,18.216 L13.5855,18.216 L13.5855,17.94525 L14.8875,16.680375 C15.015375,16.5525 15.015375,16.515 15.015375,16.31925 L15.015375,8.989875 L11.395125,18.18525 L10.907625,18.18525 L6.69075,8.989875 L6.69075,15.152625 C6.65561003,15.4116995 6.74163285,15.672534 6.924,15.859875 L8.6175,17.914125 L8.6175,18.184875 L3.81525,18.184875 L3.81525,17.914125 L5.50875,15.859875 C5.68979395,15.6722246 5.77081705,15.4096652 5.727,15.152625 L5.727,8.027625 C5.74646551,7.83027807 5.6710271,7.63541872 5.52375,7.502625 L4.0185,5.689125 L4.0185,5.418375 L8.692875,5.418375 L12.306,13.342125 L15.482625,5.418375 L19.938375,5.418375 L19.938375,5.686125 Z" id="Shape" fill="#FBFAF8" fill-rule="nonzero"></path>
    </g>
</svg>