<?xml version="1.0" encoding="UTF-8"?>
<svg width="24px" height="24px" viewBox="0 0 24 24" version="1.1" xmlns="http://www.w3.org/2000/svg" xmlns:xlink="http://www.w3.org/1999/xlink">
    <!-- Generator: Sketch 46.2 (44496) - http://www.bohemiancoding.com/sketch -->
    <title>Combined Shape</title>
    <desc>Created with Sketch.</desc>
    <defs></defs>
    <g id="Page-1" stroke="none" stroke-width="1" fill="none" fill-rule="evenodd">
        <path d="M22.992516,8.69849349 C25.4686459,16.9522598 23.5552728,20.5163861 15.3015065,22.992516 C7.04774023,25.4686459 3.48361389,23.5552728 1.007484,15.3015065 C-1.46864588,7.04774023 0.444727211,3.48361389 8.69849349,1.007484 C16.9522598,-1.46864588 20.5163861,0.444727211 22.992516,8.69849349 Z M18.8281157,14.0634416 C19.4659068,13.8383389 19.841078,13.1255136 19.6159752,12.4877226 C19.3908725,11.8499315 18.6780473,11.4747603 18.0402562,11.699863 L16.5020543,12.2251027 L15.451575,9.14869892 L16.9897769,8.62345925 C17.6275679,8.39835653 18.0027391,7.68553126 17.7776364,7.04774023 C17.5525337,6.4099492 16.8397084,6.03477801 16.2019174,6.25988072 L14.6637155,6.7851204 L14.1384758,5.17188426 C13.9133731,4.53409323 13.2005478,4.15892204 12.5627568,4.38402475 C11.9249658,4.60912747 11.5497946,5.32195274 11.7748973,5.95974377 L12.300137,7.57297991 L9.07366468,8.66097637 L8.54842501,7.04774023 C8.32332229,6.4099492 7.61049702,6.03477801 6.97270599,6.25988072 C6.33491496,6.48498344 5.95974377,7.19780871 6.18484649,7.83559974 L6.71008616,9.44883588 L5.17188426,9.97407555 C4.53409323,10.1991783 4.15892204,10.9120035 4.38402475,11.5497946 C4.57161035,12.0750342 5.02181578,12.4126883 5.54705546,12.4126883 C5.65960681,12.4126883 5.80967529,12.3751712 5.95974377,12.3376541 L7.49794567,11.8124144 L8.54842501,14.8888182 L7.01022311,15.4140579 C6.37243208,15.6391606 5.99726089,16.3519859 6.22236361,16.9897769 C6.4099492,17.5150166 6.86015464,17.8526706 7.38539431,17.8526706 C7.49794567,17.8526706 7.64801414,17.8151535 7.79808262,17.7776364 L9.33628452,17.2523967 L9.86152419,18.8656329 C10.0491098,19.3908725 10.4993152,19.7285266 11.0245549,19.7285266 C11.1371063,19.7285266 11.2871747,19.6910095 11.4372432,19.6534924 C12.0750342,19.4283897 12.4502054,18.7155644 12.2251027,18.0777734 L11.699863,16.4645372 L14.9263353,15.3765408 L15.451575,16.9897769 C15.6391606,17.5150166 16.089366,17.8526706 16.6146057,17.8526706 C16.7271571,17.8526706 16.8772255,17.8151535 17.027294,17.7776364 C17.665085,17.5525337 18.0402562,16.8397084 17.8151535,16.2019174 L17.2899138,14.5886812 L18.8281157,14.0634416 Z M10.5540778,13.3987446 L9.60125538,10.5540778 L12.4459222,9.60125538 L13.3987446,12.4459222 L10.5540778,13.3987446 Z" id="Combined-Shape" fill="#000000"></path>
    </g>
</svg>